<svg xmlns="http://www.w3.org/2000/svg" width="1600" height="900" viewBox="0 0 1600 900" fill="none">
  <defs>
    <linearGradient id="bg" x1="180" y1="110" x2="1370" y2="800" gradientUnits="userSpaceOnUse">
      <stop stop-color="#11161F"/>
      <stop offset="1" stop-color="#070A10"/>
    </linearGradient>
    <radialGradient id="glow" cx="0" cy="0" r="1" gradientUnits="userSpaceOnUse" gradientTransform="translate(1180 190) rotate(139.128) scale(430 520)">
      <stop stop-color="#C9954B" stop-opacity="0.27"/>
      <stop offset="1" stop-color="#C9954B" stop-opacity="0"/>
    </radialGradient>
    <linearGradient id="gold" x1="250" y1="220" x2="1300" y2="690" gradientUnits="userSpaceOnUse">
      <stop stop-color="#F2D8A7"/>
      <stop offset="0.48" stop-color="#C9954B"/>
      <stop offset="1" stop-color="#8E6430"/>
    </linearGradient>
  </defs>
  <rect width="1600" height="900" rx="40" fill="url(#bg)"/>
  <rect x="48" y="48" width="1504" height="804" rx="28" stroke="rgba(255,255,255,0.08)" stroke-opacity="0.08"/>
  <circle cx="1185" cy="192" r="220" fill="url(#glow)"/>
  <g opacity="0.3" stroke="#1A2130" stroke-width="1">
    <path d="M150 190H1450"/><path d="M150 280H1450"/><path d="M150 370H1450"/><path d="M150 460H1450"/><path d="M150 550H1450"/><path d="M150 640H1450"/>
  </g>
  <rect x="130" y="114" width="184" height="42" rx="21" fill="#111826" stroke="#2A3444"/>
  <text x="160" y="141" fill="#F2D8A7" font-family="Inter, Arial, sans-serif" font-size="18" font-weight="700">СКЛАД / АНГАР</text>
  <text x="130" y="785" fill="#F4F5F7" font-family="Inter, Arial, sans-serif" font-size="54" font-weight="700">Премиальная упаковка актива</text>
  <text x="130" y="830" fill="#8E98A8" font-family="Inter, Arial, sans-serif" font-size="26">Высота, ворота, пол, логистика и эксплуатационные параметры</text>
  <g stroke="url(#gold)" stroke-width="6" stroke-linecap="round" stroke-linejoin="round">
    <path d="M270 660V420L525 310L780 420V660"/>
    <path d="M270 420H780"/>
    <path d="M525 310V660"/>
    <path d="M355 500V660"/><path d="M450 500V660"/><path d="M600 500V660"/><path d="M690 500V660"/>
    <path d="M325 660V560H480V660"/>
    <path d="M575 660V540H740V660"/>
    <path d="M895 660V380H1280V660"/>
    <path d="M945 420H1230"/>
    <path d="M995 460H1180"/>
    <path d="M1005 660V510H1170V660"/>
    <path d="M920 700H1310"/>
    <path d="M240 700H790"/>
    <path d="M850 700H1360" opacity="0.5"/>
    <path d="M840 700L805 730" opacity="0.5"/>
    <path d="M1360 700L1395 730" opacity="0.5"/>
  </g>
</svg>
