<svg xmlns="http://www.w3.org/2000/svg" width="1600" height="900" viewBox="0 0 1600 900" fill="none">
  <defs>
    <linearGradient id="bg" x1="180" y1="120" x2="1400" y2="780" gradientUnits="userSpaceOnUse">
      <stop stop-color="#11161F"/>
      <stop offset="1" stop-color="#070A10"/>
    </linearGradient>
    <radialGradient id="glow" cx="0" cy="0" r="1" gradientUnits="userSpaceOnUse" gradientTransform="translate(1210 180) rotate(140.315) scale(430 530)">
      <stop stop-color="#C9954B" stop-opacity="0.28"/>
      <stop offset="1" stop-color="#C9954B" stop-opacity="0"/>
    </radialGradient>
    <linearGradient id="gold" x1="250" y1="230" x2="1320" y2="680" gradientUnits="userSpaceOnUse">
      <stop stop-color="#F2D8A7"/>
      <stop offset="0.44" stop-color="#C9954B"/>
      <stop offset="1" stop-color="#8E6430"/>
    </linearGradient>
  </defs>
  <rect width="1600" height="900" rx="40" fill="url(#bg)"/>
  <rect x="48" y="48" width="1504" height="804" rx="28" stroke="rgba(255,255,255,0.08)" stroke-opacity="0.08"/>
  <circle cx="1210" cy="180" r="220" fill="url(#glow)"/>
  <g opacity="0.3" stroke="#1A2130" stroke-width="1"><path d="M150 190H1450"/><path d="M150 280H1450"/><path d="M150 370H1450"/><path d="M150 460H1450"/><path d="M150 550H1450"/><path d="M150 640H1450"/></g>
  <rect x="130" y="114" width="280" height="42" rx="21" fill="#111826" stroke="#2A3444"/>
  <text x="160" y="141" fill="#F2D8A7" font-family="Inter, Arial, sans-serif" font-size="18" font-weight="700">КОММЕРЧЕСКАЯ НЕДВИЖИМОСТЬ</text>
  <text x="130" y="785" fill="#F4F5F7" font-family="Inter, Arial, sans-serif" font-size="54" font-weight="700">Премиальная упаковка актива</text>
  <text x="130" y="830" fill="#8E98A8" font-family="Inter, Arial, sans-serif" font-size="26">Назначение, сценарий использования и аргументация цены</text>
  <g stroke="url(#gold)" stroke-width="6" stroke-linecap="round" stroke-linejoin="round">
    <path d="M350 660V300H650V660"/>
    <path d="M650 660V380H930V660"/>
    <path d="M930 660V250H1240V660"/>
    <path d="M420 370H580"/><path d="M420 440H580"/><path d="M420 510H580"/>
    <path d="M720 450H860"/><path d="M720 520H860"/>
    <path d="M1000 330H1170"/><path d="M1000 400H1170"/><path d="M1000 470H1170"/><path d="M1000 540H1170"/>
    <path d="M470 660V560H545V660"/><path d="M780 660V560H845V660"/><path d="M1085 660V575H1160V660"/>
    <path d="M300 700H1290"/>
    <path d="M280 700L240 735" opacity="0.5"/><path d="M1290 700L1330 735" opacity="0.5"/><path d="M220 735H1360" opacity="0.5"/>
  </g>
</svg>
