<svg xmlns="http://www.w3.org/2000/svg" viewBox="0 0 980 220" role="img" aria-label="A&amp;A Asset Team">
  <defs>
    <linearGradient id="gold" x1="0" y1="0" x2="1" y2="1">
      <stop offset="0" stop-color="#ffe08a"/>
      <stop offset="0.45" stop-color="#c9954b"/>
      <stop offset="1" stop-color="#8b5c1e"/>
    </linearGradient>
    <linearGradient id="silver" x1="0" y1="0" x2="1" y2="1">
      <stop offset="0" stop-color="#ffffff"/>
      <stop offset="0.5" stop-color="#d7d9dd"/>
      <stop offset="1" stop-color="#8e949d"/>
    </linearGradient>
  </defs>
  <g>
    <g transform="translate(18 14) scale(.38)">
      <path d="M102 330C170 388 298 407 397 318" fill="none" stroke="url(#gold)" stroke-width="24" stroke-linecap="round"/>
      <path d="M342 88C419 151 442 257 397 337" fill="none" stroke="url(#gold)" stroke-width="23" stroke-linecap="round"/>
      <path d="M119 205 183 160v198h-64z" fill="url(#silver)" stroke="#30343b" stroke-width="6"/>
      <path d="M220 118 288 72l68 46v248h-58V136l-19-13-19 13v230h-40z" fill="url(#gold)" stroke="#7a501d" stroke-width="7"/>
      <path d="M318 201 377 239v103l-59 36z" fill="url(#gold)" stroke="#7a501d" stroke-width="7"/>
    </g>
    <text x="215" y="93" font-family="Inter, Arial, sans-serif" font-size="66" font-weight="800" letter-spacing="-3" fill="url(#silver)">A</text>
    <text x="275" y="93" font-family="Inter, Arial, sans-serif" font-size="66" font-weight="800" letter-spacing="-3" fill="url(#gold)">&amp;</text>
    <text x="345" y="93" font-family="Inter, Arial, sans-serif" font-size="66" font-weight="800" letter-spacing="-3" fill="url(#silver)">A</text>
    <text x="218" y="154" font-family="Inter, Arial, sans-serif" font-size="28" font-weight="700" letter-spacing="13" fill="url(#silver)">ASSET TEAM</text>
    <path d="M190 143h34M650 143h34" stroke="url(#gold)" stroke-width="5" stroke-linecap="round"/>
  </g>
</svg>
