<svg xmlns="http://www.w3.org/2000/svg" width="1600" height="900" viewBox="0 0 1600 900" fill="none">
  <defs>
    <linearGradient id="bg" x1="180" y1="120" x2="1400" y2="780" gradientUnits="userSpaceOnUse"><stop stop-color="#11161F"/><stop offset="1" stop-color="#070A10"/></linearGradient>
    <radialGradient id="glow" cx="0" cy="0" r="1" gradientUnits="userSpaceOnUse" gradientTransform="translate(1210 180) rotate(140.315) scale(430 530)"><stop stop-color="#C9954B" stop-opacity="0.28"/><stop offset="1" stop-color="#C9954B" stop-opacity="0"/></radialGradient>
    <linearGradient id="gold" x1="240" y1="220" x2="1310" y2="700" gradientUnits="userSpaceOnUse"><stop stop-color="#F2D8A7"/><stop offset="0.42" stop-color="#C9954B"/><stop offset="1" stop-color="#8E6430"/></linearGradient>
  </defs>
  <rect width="1600" height="900" rx="40" fill="url(#bg)"/>
  <rect x="48" y="48" width="1504" height="804" rx="28" stroke="rgba(255,255,255,0.08)" stroke-opacity="0.08"/>
  <circle cx="1210" cy="180" r="220" fill="url(#glow)"/>
  <g opacity="0.3" stroke="#1A2130" stroke-width="1"><path d="M150 190H1450"/><path d="M150 280H1450"/><path d="M150 370H1450"/><path d="M150 460H1450"/><path d="M150 550H1450"/><path d="M150 640H1450"/></g>
  <rect x="130" y="114" width="194" height="42" rx="21" fill="#111826" stroke="#2A3444"/>
  <text x="160" y="141" fill="#F2D8A7" font-family="Inter, Arial, sans-serif" font-size="18" font-weight="700">СПЕЦТЕХНИКА</text>
  <text x="130" y="785" fill="#F4F5F7" font-family="Inter, Arial, sans-serif" font-size="54" font-weight="700">Премиальная упаковка актива</text>
  <text x="130" y="830" fill="#8E98A8" font-family="Inter, Arial, sans-serif" font-size="26">Наработка, состояние, документы и готовность к осмотру</text>
  <g stroke="url(#gold)" stroke-width="6" stroke-linecap="round" stroke-linejoin="round">
    <circle cx="450" cy="640" r="70"/><circle cx="745" cy="640" r="70"/>
    <path d="M330 590H610L705 515H835L935 565H1050"/>
    <path d="M520 495H720L760 565"/>
    <path d="M605 495V430H720V495"/>
    <path d="M1025 555L1155 420H1270"/>
    <path d="M1110 486L1240 335"/>
    <path d="M1240 335L1320 365"/>
    <path d="M1155 420L1235 455"/>
    <path d="M915 565V640"/>
    <path d="M835 515V565"/>
    <path d="M450 700H1080"/>
    <path d="M300 725H1380" opacity="0.5"/>
  </g>
</svg>
