<svg xmlns="http://www.w3.org/2000/svg" width="1600" height="900" viewBox="0 0 1600 900" fill="none">
  <defs>
    <linearGradient id="bg" x1="180" y1="120" x2="1400" y2="780" gradientUnits="userSpaceOnUse"><stop stop-color="#11161F"/><stop offset="1" stop-color="#070A10"/></linearGradient>
    <radialGradient id="glow" cx="0" cy="0" r="1" gradientUnits="userSpaceOnUse" gradientTransform="translate(1210 180) rotate(140.315) scale(430 530)"><stop stop-color="#C9954B" stop-opacity="0.28"/><stop offset="1" stop-color="#C9954B" stop-opacity="0"/></radialGradient>
    <linearGradient id="gold" x1="250" y1="230" x2="1310" y2="690" gradientUnits="userSpaceOnUse"><stop stop-color="#F2D8A7"/><stop offset="0.42" stop-color="#C9954B"/><stop offset="1" stop-color="#8E6430"/></linearGradient>
  </defs>
  <rect width="1600" height="900" rx="40" fill="url(#bg)"/>
  <rect x="48" y="48" width="1504" height="804" rx="28" stroke="rgba(255,255,255,0.08)" stroke-opacity="0.08"/>
  <circle cx="1210" cy="180" r="220" fill="url(#glow)"/>
  <g opacity="0.3" stroke="#1A2130" stroke-width="1"><path d="M150 190H1450"/><path d="M150 280H1450"/><path d="M150 370H1450"/><path d="M150 460H1450"/><path d="M150 550H1450"/><path d="M150 640H1450"/></g>
  <rect x="130" y="114" width="308" height="42" rx="21" fill="#111826" stroke="#2A3444"/>
  <text x="160" y="141" fill="#F2D8A7" font-family="Inter, Arial, sans-serif" font-size="18" font-weight="700">СКЛАДСКИЕ ОСТАТКИ И ТМЦ</text>
  <text x="130" y="785" fill="#F4F5F7" font-family="Inter, Arial, sans-serif" font-size="54" font-weight="700">Премиальная упаковка актива</text>
  <text x="130" y="830" fill="#8E98A8" font-family="Inter, Arial, sans-serif" font-size="26">Группировка, товарные партии и понятная структура предложения</text>
  <g stroke="url(#gold)" stroke-width="6" stroke-linecap="round" stroke-linejoin="round">
    <rect x="305" y="525" width="170" height="115" rx="18"/>
    <rect x="485" y="445" width="170" height="195" rx="18"/>
    <rect x="665" y="525" width="170" height="115" rx="18"/>
    <rect x="900" y="505" width="145" height="135" rx="18"/>
    <rect x="1055" y="420" width="145" height="220" rx="18"/>
    <rect x="1210" y="505" width="145" height="135" rx="18"/>
    <path d="M390 525V470H570"/><path d="M570 445V390H750"/><path d="M974 505V460H1128"/><path d="M1128 420V365H1282"/>
    <path d="M355 575H425"/><path d="M535 525H605"/><path d="M535 590H605"/><path d="M715 575H785"/><path d="M945 560H1000"/><path d="M1100 500H1155"/><path d="M1100 560H1155"/><path d="M1255 560H1310"/>
    <path d="M250 700H1380"/>
    <path d="M220 730H1410" opacity="0.5"/>
  </g>
</svg>
