<?xml version="1.0" standalone="no"?>
<!DOCTYPE svg PUBLIC "-//W3C//DTD SVG 20010904//EN"
 "http://www.w3.org/TR/2001/REC-SVG-20010904/DTD/svg10.dtd">
<svg version="1.0" xmlns="http://www.w3.org/2000/svg"
 width="1254.000000pt" height="1254.000000pt" viewBox="0 0 1254.000000 1254.000000"
 preserveAspectRatio="xMidYMid meet">

<g transform="translate(0.000000,1254.000000) scale(0.100000,-0.100000)"
fill="#000000" stroke="none">
<path d="M6128 10065 l-168 -123 0 -3237 c-1 -2785 -3 -3236 -15 -3231 -8 3
-36 -1 -62 -9 -210 -65 -552 -122 -826 -139 -37 -2 -74 -9 -82 -16 -13 -11
-15 269 -17 2391 -1 1322 -2 2458 -3 2524 -5 1410 -7 1578 -15 1563 -7 -10 -9
-1180 -8 -3275 l3 -3258 118 1 c130 2 235 13 460 50 143 24 392 82 450 105
l27 11 0 3218 0 3218 103 75 c56 41 128 91 159 112 l57 37 138 -93 c234 -157
407 -275 681 -461 l262 -179 0 -693 c0 -680 0 -693 20 -711 20 -18 20 -17 20
731 l0 749 -78 52 c-42 29 -117 80 -167 114 -49 34 -160 109 -245 167 -226
154 -401 275 -517 359 -56 40 -108 73 -115 72 -7 0 -88 -56 -180 -124z m1289
-1082 c-3 -10 -5 -4 -5 12 0 17 2 24 5 18 2 -7 2 -21 0 -30z"/>
<path d="M7840 10152 c0 -4 10 -13 22 -21 158 -98 578 -502 752 -721 385 -485
653 -1050 780 -1643 66 -306 80 -444 81 -792 0 -362 -14 -500 -90 -855 -55
-258 -192 -652 -298 -855 -33 -62 -56 -115 -52 -115 3 0 11 13 19 29 8 15 24
39 36 52 11 13 27 33 35 44 14 19 15 18 5 -8 -5 -15 -17 -41 -25 -57 -9 -17
-13 -30 -10 -30 6 0 85 156 85 167 0 5 -9 -5 -19 -20 -36 -56 -32 -7 6 57 40
71 53 80 29 21 -23 -55 -19 -57 9 -3 92 175 224 595 269 853 52 297 68 479 67
750 -1 752 -225 1491 -649 2144 -256 396 -617 776 -887 937 -79 47 -165 81
-165 66z m1480 -4419 c-11 -17 -11 -17 -6 0 3 10 6 24 7 30 0 9 2 9 5 0 3 -7
0 -20 -6 -30z m-49 -140 c-12 -20 -14 -14 -5 12 4 9 9 14 11 11 3 -2 0 -13 -6
-23z"/>
<path d="M7590 9643 c0 -76 -2 -500 -4 -943 -3 -802 -1 -940 15 -940 5 0 9
455 9 1010 0 667 -3 1010 -10 1010 -6 0 -10 -53 -10 -137z"/>
<path d="M6595 8589 c-3 -8 -4 -1128 -3 -2489 l3 -2475 20 -3 c12 -2 63 15
115 37 442 184 898 473 1183 750 l77 76 -1 1455 c0 800 -4 1464 -8 1474 -5 12
-10 15 -14 9 -4 -6 -7 -663 -7 -1459 l-1 -1449 -28 -15 c-16 -8 -82 -61 -148
-118 -259 -225 -599 -440 -947 -599 -76 -34 -143 -63 -149 -63 -6 0 -19 -7
-29 -17 -17 -16 -18 50 -18 2084 0 1998 -7 2908 -21 2663 l-6 -105 0 123 c0
115 -6 153 -18 121z m22 -446 c-2 -21 -4 -6 -4 32 0 39 2 55 4 38 2 -18 2 -50
0 -70z"/>
<path d="M4445 8247 c-20 -32 -20 -52 -23 -2461 -1 -1336 -4 -2432 -7 -2434
-7 -7 -311 37 -435 64 -244 52 -499 128 -707 210 -61 24 -116 44 -122 44 -7 0
-10 535 -11 1756 0 966 -3 1760 -6 1765 -3 5 -9 7 -14 4 -5 -3 -9 -803 -10
-1785 l-1 -1779 23 -15 c33 -21 284 -118 403 -155 297 -92 738 -181 896 -181
l49 0 0 2500 c0 1375 -3 2500 -7 2500 -5 0 -17 -15 -28 -33z"/>
<path d="M10022 7490 c0 -14 2 -19 5 -12 2 6 2 18 0 25 -3 6 -5 1 -5 -13z"/>
<path d="M10032 7440 c0 -14 2 -19 5 -12 2 6 2 18 0 25 -3 6 -5 1 -5 -13z"/>
<path d="M10041 7400 c0 -8 6 -54 14 -102 68 -417 66 -876 -5 -1303 -102 -606
-380 -1230 -772 -1731 -221 -283 -530 -587 -802 -788 -119 -88 -360 -246 -461
-303 -181 -101 -223 -122 -386 -196 -537 -243 -1110 -389 -1700 -432 -836 -61
-1652 76 -2444 412 -243 103 -784 387 -975 510 -100 65 -89 48 25 -42 366
-286 976 -583 1535 -748 197 -58 334 -90 585 -136 475 -87 1043 -100 1560 -35
711 90 1453 358 2035 736 688 446 1244 1097 1550 1813 110 256 143 357 214
640 121 480 145 1000 70 1496 -23 155 -41 243 -43 209z"/>
<path d="M4372 5255 c0 -16 2 -22 5 -12 2 9 2 23 0 30 -3 6 -5 -1 -5 -18z"/>
<path d="M5900 5207 c0 -20 4 -38 10 -42 5 -3 8 9 6 29 -3 48 -16 58 -16 13z"/>
<path d="M4372 5195 c0 -16 2 -22 5 -12 2 9 2 23 0 30 -3 6 -5 -1 -5 -18z"/>
<path d="M5768 5133 c7 -3 16 -2 19 1 4 3 -2 6 -13 5 -11 0 -14 -3 -6 -6z"/>
<path d="M8991 5083 c-10 -26 -10 -27 4 -9 8 11 15 23 15 28 0 15 -7 8 -19
-19z"/>
<path d="M9035 5079 c-4 -6 -5 -12 -2 -15 2 -3 7 2 10 11 7 17 1 20 -8 4z"/>
<path d="M5605 5060 c-3 -5 1 -10 9 -10 9 0 16 5 16 10 0 6 -4 10 -9 10 -6 0
-13 -4 -16 -10z"/>
<path d="M5892 5051 c-7 -4 -13 -26 -14 -49 -1 -24 -4 -38 -8 -32 -5 8 -12 6
-24 -5 -14 -15 -16 -15 -16 0 0 13 -4 14 -22 4 -18 -10 -20 -9 -15 5 4 9 2 16
-3 16 -6 0 -10 -4 -10 -10 0 -5 -5 -10 -11 -10 -5 0 -8 4 -5 8 2 4 -3 8 -12 8
-14 0 -17 -10 -16 -48 0 -27 -4 -49 -10 -50 -6 0 -18 -1 -26 -2 -8 -1 -15 -8
-15 -16 0 -13 9 -15 33 -7 19 6 14 -17 -6 -31 -18 -12 -22 -12 -20 -2 2 8 -6
15 -17 17 -16 3 -17 2 -5 -6 12 -9 11 -11 -7 -11 -26 0 -22 -21 10 -57 11 -13
15 -23 9 -23 -6 0 -17 9 -25 20 -14 20 -14 20 -34 -3 -26 -28 -50 -72 -34 -62
7 3 22 -4 35 -16 19 -18 22 -28 15 -45 -5 -15 -4 -24 4 -28 9 -3 9 -5 0 -5 -6
-1 -19 9 -27 21 -9 12 -16 17 -16 10 0 -6 -5 -12 -11 -12 -5 0 -7 5 -4 10 3 6
-5 10 -18 10 -14 0 -27 -6 -30 -14 -6 -15 23 -56 39 -56 25 -1 36 -18 25 -39
-7 -12 -16 -19 -22 -16 -5 4 -7 11 -4 16 4 5 -4 8 -16 6 -13 -2 -25 -9 -27
-15 -2 -7 -8 -9 -14 -6 -5 4 3 15 19 25 20 14 23 19 11 19 -10 0 -18 -4 -18
-10 0 -5 -9 -10 -20 -10 -13 0 -18 5 -14 14 3 8 0 23 -6 33 -10 16 -11 16 -7
-3 6 -29 -4 -43 -34 -49 -13 -3 -25 -9 -27 -15 -2 -6 -8 -8 -12 -5 -5 3 -7 -3
-5 -15 2 -11 -1 -22 -6 -26 -6 -4 -6 -11 2 -20 9 -11 7 -14 -10 -14 -12 0 -20
4 -17 9 3 5 -2 8 -12 7 -13 -1 -16 6 -14 26 3 26 1 27 -29 21 -29 -6 -31 -5
-20 15 6 11 16 24 21 27 7 4 7 13 0 24 -5 10 -6 22 -2 26 4 4 -7 5 -23 2 -17
-3 -37 -2 -45 4 -8 5 -11 9 -6 9 5 0 3 7 -4 15 -10 12 -10 19 -2 27 7 7 12 8
12 4 0 -5 8 -2 18 5 15 12 16 12 4 -2 -13 -18 -6 -53 10 -43 5 3 7 13 4 21 -4
11 -2 13 9 9 14 -5 17 2 14 32 0 4 -7 6 -14 6 -16 -2 -12 10 13 39 17 19 3 24
-16 5 -10 -10 -15 -10 -23 2 -7 11 -9 7 -4 -17 5 -27 2 -33 -24 -49 -23 -13
-29 -23 -25 -37 4 -13 0 -20 -15 -24 -11 -3 -18 -10 -14 -16 3 -6 1 -7 -5 -3
-6 4 -9 13 -5 21 3 10 -2 15 -16 15 -14 0 -21 6 -21 20 0 11 -4 20 -10 20 -10
0 -3 -27 13 -48 7 -8 4 -19 -8 -32 -14 -15 -20 -17 -26 -8 -17 26 -22 -4 -6
-32 20 -33 9 -47 -23 -30 -11 6 -20 7 -20 3 0 -4 -9 -19 -20 -33 l-20 -25 0
160 c0 88 4 156 8 150 11 -15 41 -15 36 0 -3 7 -13 12 -22 11 -12 -1 -19 10
-23 39 -3 22 -7 -39 -8 -135 -1 -96 -4 -440 -8 -763 l-6 -589 79 7 c273 22
593 76 807 135 l37 11 0 493 0 494 -25 16 c-14 9 -25 21 -25 27 0 6 7 3 16 -5
8 -9 20 -16 25 -16 10 0 13 193 3 203 -4 3 -19 -7 -34 -23 -19 -21 -33 -27
-49 -23 -27 7 -28 23 -1 23 23 0 26 10 8 29 -11 10 -10 12 2 9 8 -2 18 -7 22
-13 5 -6 8 -3 8 6 0 12 7 15 23 12 l23 -5 2 166 c1 91 -2 167 -6 170 -4 3 -13
1 -20 -3z m-69 -111 c3 -11 -2 -24 -12 -32 -9 -7 -13 -9 -9 -4 4 5 3 18 -3 29
-8 14 -8 18 0 13 6 -4 11 -2 11 3 0 18 7 13 13 -9z m-20 -63 c3 -7 -3 -13 -14
-13 -13 0 -15 3 -7 13 6 7 12 13 13 13 2 0 5 -6 8 -13z m37 -37 c12 -8 11 -10
-7 -10 -13 0 -23 5 -23 10 0 13 11 13 30 0z m60 -53 c0 -7 -14 -13 -32 -13
-20 -1 -38 -10 -50 -24 -21 -26 -24 -14 -3 14 8 10 13 22 11 25 -2 3 13 7 35
8 24 0 39 -3 39 -10z m-210 -72 c4 3 3 -6 -3 -20 -12 -24 -37 -35 -37 -15 0
20 2 25 11 23 5 -2 8 0 8 5 -3 16 3 26 8 14 2 -6 8 -10 13 -7z m110 -19 c0 -2
-8 -10 -17 -17 -16 -13 -17 -12 -4 4 13 16 21 21 21 13z m-42 -50 c2 -3 12 -1
21 3 31 17 39 -11 14 -48 -13 -19 -23 -30 -23 -25 0 5 -7 1 -15 -10 -14 -18
-15 -18 -44 7 -16 13 -27 28 -24 31 4 3 1 6 -5 6 -7 0 -12 -4 -12 -10 0 -5 -5
-10 -11 -10 -8 0 -7 5 1 15 7 9 10 18 6 22 -3 3 1 14 10 24 12 13 22 15 46 8
17 -4 33 -11 36 -13z m117 -13 c-2 -7 1 -13 7 -13 6 0 9 -2 6 -5 -7 -7 -58 12
-58 22 0 5 11 8 25 8 16 0 23 -5 20 -12z m-281 -25 c-3 -4 6 -8 20 -8 14 0 28
-5 31 -11 4 -6 13 -8 20 -5 7 2 26 -6 42 -20 15 -13 31 -24 35 -24 3 0 24 17
46 38 33 32 43 36 56 27 20 -15 21 -32 1 -32 -8 0 -15 7 -15 14 0 8 -4 12 -9
9 -4 -3 -6 -16 -4 -30 3 -13 0 -27 -6 -30 -12 -8 -16 -30 -3 -23 4 3 16 1 27
-4 19 -7 19 -8 -2 -8 -29 -1 -54 9 -47 20 6 11 1 11 -20 3 -11 -4 -14 -14 -10
-29 8 -31 -19 -39 -48 -15 -13 11 -17 19 -10 20 6 0 12 5 12 11 0 8 -4 8 -14
0 -20 -17 -16 -49 6 -54 10 -3 18 -11 18 -17 0 -10 -4 -9 -15 0 -13 11 -18 10
-29 -6 -8 -10 -18 -15 -22 -11 -5 4 -2 12 6 18 13 8 13 10 0 18 -9 7 -19 6
-28 -1 -10 -9 -19 -9 -35 1 -18 12 -23 11 -39 -9 -9 -12 -22 -19 -28 -15 -15
9 -12 25 6 25 9 0 12 5 8 12 -5 8 -2 9 9 5 12 -4 17 -1 18 11 0 11 2 12 6 4 4
-10 8 -10 19 -1 12 10 17 8 28 -6 9 -13 15 -15 20 -6 4 6 12 9 17 6 5 -3 6 1
3 10 -4 9 -12 14 -19 11 -18 -7 -39 10 -32 28 4 10 16 14 36 11 17 -2 33 1 36
6 4 5 0 10 -7 10 -7 1 -24 3 -37 4 -13 1 -26 7 -30 12 -3 5 -17 17 -30 26 -23
15 -23 16 -3 14 11 0 18 -5 16 -9z m-294 -34 c0 -2 -7 -4 -15 -4 -8 0 -15 4
-15 10 0 5 7 7 15 4 8 -4 15 -8 15 -10z m-155 -24 c3 -5 -1 -10 -9 -10 -9 0
-16 5 -16 10 0 6 4 10 9 10 6 0 13 -4 16 -10z m735 6 c0 -2 -7 -7 -16 -10 -8
-3 -12 -2 -9 4 6 10 25 14 25 6z m-422 -74 c-7 -18 -16 -32 -20 -32 -12 0 -9
13 7 33 7 11 11 26 8 35 -4 12 -3 14 5 7 9 -8 9 -19 0 -43z m67 9 c3 -6 -3 -9
-14 -8 -11 0 -17 5 -15 9 7 11 22 10 29 -1z m-462 -29 c-3 -12 -10 -22 -15
-22 -5 0 -6 -4 -3 -10 3 -6 -1 -7 -9 -4 -22 8 -20 23 7 44 26 22 28 21 20 -8z
m214 -8 c-3 -3 -12 -4 -19 -1 -8 3 -5 6 6 6 11 1 17 -2 13 -5z m326 -21 c4 -3
2 -12 -5 -20 -8 -11 -8 -17 2 -26 9 -9 11 -9 6 0 -9 17 10 25 23 9 18 -22 -16
-29 -46 -9 -21 14 -28 14 -45 4 -26 -16 -35 -7 -14 14 9 10 23 14 31 11 9 -3
15 0 15 9 0 15 21 20 33 8z m82 -43 c3 -6 -1 -7 -9 -4 -18 7 -21 14 -7 14 6 0
13 -4 16 -10z m-228 -116 c-3 -3 -12 -4 -19 -1 -8 3 -5 6 6 6 11 1 17 -2 13
-5z m-107 -38 c0 -2 -7 -6 -15 -10 -8 -3 -15 -1 -15 4 0 6 7 10 15 10 8 0 15
-2 15 -4z m-220 -20 c0 -2 -7 -7 -16 -10 -8 -3 -12 -2 -9 4 6 10 25 14 25 6z"/>
<path d="M5688 4644 c6 -3 10 -9 8 -13 -3 -4 8 -8 24 -8 17 0 30 3 30 7 0 4
-6 7 -12 7 -7 0 -24 3 -38 6 -14 4 -19 4 -12 1z"/>
<path d="M5767 4633 c-12 -12 -7 -22 8 -17 8 4 15 10 15 15 0 11 -14 12 -23 2z"/>
<path d="M5776 4555 c-19 -15 -19 -15 3 -15 12 0 20 4 17 9 -4 5 0 12 6 14 7
3 9 6 3 6 -5 0 -19 -6 -29 -14z"/>
<path d="M5720 4500 c0 -5 5 -10 10 -10 6 0 10 5 10 10 0 6 -4 10 -10 10 -5 0
-10 -4 -10 -10z"/>
<path d="M6680 4397 c-3 -362 -3 -660 -1 -662 2 -2 11 0 20 5 9 5 86 43 172
83 266 126 551 299 744 452 39 30 93 73 120 94 28 21 64 54 80 72 l30 33 -27
-17 c-24 -15 -29 -15 -41 -2 -13 13 -17 13 -27 0 -7 -8 -9 -15 -5 -15 5 0 0
-9 -9 -19 -10 -11 -15 -25 -10 -32 5 -8 3 -10 -5 -5 -7 5 -10 14 -7 22 3 7 0
16 -6 20 -6 4 -8 3 -5 -3 4 -5 -5 -20 -18 -31 -20 -17 -30 -20 -50 -12 -20 8
-27 6 -37 -9 -11 -17 -12 -17 -29 0 -21 21 -39 25 -39 9 0 -5 -14 -10 -31 -10
-27 0 -30 -2 -19 -15 11 -13 10 -14 -4 -9 -9 3 -16 11 -16 16 0 6 -7 16 -15
22 -12 9 -13 15 -2 36 8 14 18 24 24 23 6 -1 9 6 6 17 -6 22 -11 24 -32 11 -7
-5 -11 -13 -7 -19 3 -6 2 -13 -3 -16 -5 -4 -8 -20 -6 -37 4 -27 2 -30 -15 -26
-11 3 -19 2 -18 -2 2 -17 -4 -20 -28 -11 -14 6 -31 7 -37 3 -7 -4 -22 -8 -34
-8 -18 -1 -20 2 -12 17 11 20 25 23 32 8 3 -6 4 -5 3 2 -2 7 -12 13 -24 12
-11 0 -18 5 -16 11 6 15 44 37 44 25 0 -5 7 -10 15 -10 12 0 13 4 5 19 -13 25
-13 34 0 26 18 -11 41 14 28 29 -9 9 -16 7 -33 -9 -12 -11 -20 -23 -18 -26 5
-11 -26 -19 -44 -12 -12 5 -14 3 -8 -8 8 -12 6 -12 -9 0 -13 11 -14 16 -4 22
6 4 16 5 21 2 5 -3 8 0 5 7 -2 8 -10 16 -18 18 -7 3 -10 0 -6 -6 8 -14 -17
-22 -49 -16 -17 3 -24 1 -20 -6 3 -5 2 -10 -3 -10 -6 0 -8 -9 -5 -20 3 -12 0
-20 -6 -20 -17 0 -3 -20 23 -31 18 -8 17 -9 -9 -6 -16 2 -36 6 -44 8 -7 2 -16
-2 -18 -8 -3 -8 4 -13 18 -13 l22 0 -23 -25 c-13 -14 -30 -23 -37 -21 -7 3
-20 3 -28 -1 -14 -5 -14 -7 1 -24 15 -17 49 -16 38 2 -3 5 0 9 5 9 17 0 13
-18 -6 -28 -19 -11 -57 3 -85 30 -14 14 -14 17 -2 22 8 3 14 1 14 -5 0 -6 5
-7 11 -3 8 5 6 10 -5 16 -12 7 -24 5 -40 -5 -21 -14 -53 -21 -84 -18 -13 1
-12 22 2 33 6 4 5 17 -2 32 -8 17 -8 26 -1 26 6 0 7 5 4 10 -10 16 7 12 28 -7
20 -17 20 -17 12 2 -4 11 -8 29 -9 40 -1 24 -19 45 -38 45 -10 0 -9 3 2 10 24
15 -2 11 -30 -5 -14 -8 -34 -14 -44 -15 -20 0 -20 0 0 14 18 14 18 15 -3 13
-13 -1 -23 -4 -23 -8 0 -4 -7 -10 -16 -13 -12 -5 -14 -3 -8 7 5 7 -1 1 -13
-13 -13 -14 -23 -22 -24 -17 -1 4 -3 12 -4 17 -1 6 -3 14 -4 20 -2 15 -31 0
-31 -17 0 -8 5 -11 10 -8 17 11 11 -11 -9 -29 -18 -16 -18 -15 -16 31 1 26 -2
56 -6 65 -6 11 -4 22 6 32 11 11 12 16 2 19 -6 3 -3 6 8 6 12 1 16 4 9 9 -16
11 -32 45 -27 60 3 6 13 12 24 12 12 0 16 5 13 15 -4 11 -2 13 9 9 12 -4 14 0
10 18 -4 18 -3 20 6 8 9 -13 11 -12 11 3 0 10 4 16 10 12 5 -3 7 -13 4 -23 -5
-13 -4 -14 4 -3 13 18 3 56 -11 42 -6 -6 -15 -11 -21 -11 -5 0 -6 3 -3 6 3 4
2 15 -4 25 -8 16 -14 17 -30 9 -27 -15 -28 -7 -32 140 -1 69 -5 -171 -7 -533z
m45 369 c-10 -7 -16 -17 -13 -22 3 -5 2 -18 -3 -29 -6 -16 -7 -15 -7 10 2 29
26 70 36 60 3 -3 -3 -11 -13 -19z m205 -292 c0 -2 -9 -4 -20 -4 -11 0 -20 4
-20 9 0 5 9 7 20 4 11 -3 20 -7 20 -9z m-44 -50 c-4 -9 0 -24 8 -33 14 -15 13
-17 -3 -18 -13 -1 -21 7 -24 23 -2 13 0 24 5 24 5 0 6 5 3 10 -3 6 -1 10 5 10
7 0 9 -7 6 -16z m-140 -42 c-14 -14 -17 -14 -14 -2 3 17 20 31 27 24 3 -2 -3
-12 -13 -22z m110 -16 c-1 -28 -3 -32 -14 -23 -8 6 -10 13 -4 15 5 1 8 12 5
22 -3 11 -1 20 4 20 5 0 9 -15 9 -34z m-56 20 c0 -3 -4 -8 -10 -11 -5 -3 -10
-1 -10 4 0 6 5 11 10 11 6 0 10 -2 10 -4z m910 -15 c0 -9 -24 -21 -42 -21 -6
0 -6 6 2 15 14 16 40 20 40 6z m-245 -40 c-6 -5 -25 10 -25 20 0 5 6 4 14 -3
8 -7 12 -15 11 -17z m-165 9 c0 -5 -5 -10 -11 -10 -5 0 -7 5 -4 10 3 6 8 10
11 10 2 0 4 -4 4 -10z m-532 -24 c-1 -14 -6 -23 -9 -20 -10 6 -7 44 3 44 4 0
7 -11 6 -24z m135 -6 c3 -11 -1 -21 -10 -24 -8 -3 -11 -1 -8 4 3 5 1 19 -5 30
-8 16 -8 18 4 14 8 -3 16 -14 19 -24z m334 6 c18 -20 19 -27 9 -42 -9 -12 -15
-14 -20 -6 -4 7 -2 12 3 12 6 0 11 5 11 11 0 6 -9 8 -20 4 -15 -5 -18 -3 -14
9 3 9 1 16 -5 16 -6 0 -11 5 -11 10 0 18 26 10 47 -14z m-440 -33 c-3 -10 -5
-4 -5 12 0 17 2 24 5 18 2 -7 2 -21 0 -30z m26 22 c-3 -9 -8 -14 -10 -11 -3 3
-2 9 2 15 9 16 15 13 8 -4z m362 -41 c-17 -18 -21 -18 -29 2 -4 9 -1 23 6 31
10 13 14 13 24 -2 11 -14 10 -20 -1 -31z m-225 26 c0 -5 3 -9 8 -9 4 1 16 1
27 0 16 -1 17 -3 5 -10 -8 -6 -18 -7 -24 -4 -5 3 -6 1 -2 -5 7 -12 -27 -52
-43 -52 -6 0 -3 12 4 28 8 15 12 35 9 45 -3 9 -1 17 5 17 6 0 11 -4 11 -10z
m-123 -16 c-3 -3 -12 -4 -19 -1 -8 3 -5 6 6 6 11 1 17 -2 13 -5z m18 -24 c-3
-5 -1 -10 4 -10 6 0 11 4 11 8 0 5 7 9 15 9 13 0 13 -3 -1 -19 -13 -13 -20
-15 -30 -7 -12 10 -11 29 2 29 3 0 2 -4 -1 -10z m403 -23 c-8 -17 -13 -18 -16
-7 -3 7 0 16 7 18 6 2 8 9 5 14 -4 7 -2 8 4 4 9 -5 9 -13 0 -29z m-48 2 c12
-8 10 -9 -9 -4 -16 5 -21 4 -17 -4 4 -6 2 -11 -3 -11 -12 0 -14 13 -4 23 9 9
15 9 33 -4z m-240 -36 c-8 -3 -22 -11 -30 -17 -13 -10 -13 -9 -1 7 7 9 21 17
30 16 13 0 14 -1 1 -6z m68 -18 c3 -3 -4 -5 -16 -5 -11 0 -23 4 -27 9 -6 10
33 6 43 -4z"/>
<path d="M5580 5021 c0 -5 7 -12 16 -15 14 -5 15 -4 4 9 -14 17 -20 19 -20 6z"/>
<path d="M8906 4943 c-26 -43 -35 -65 -22 -48 25 29 81 125 73 125 -2 0 -25
-35 -51 -77z"/>
<path d="M5012 4945 c0 -16 2 -22 5 -12 2 9 2 23 0 30 -3 6 -5 -1 -5 -18z"/>
<path d="M5562 4879 c3 -8 -4 -25 -16 -37 -15 -18 -17 -23 -6 -22 36 5 41 0
20 -22 -18 -20 -19 -23 -5 -26 9 -2 23 2 32 10 14 11 16 11 8 -1 -6 -11 -2
-10 15 2 37 26 32 107 -6 107 -16 0 -15 -2 1 -20 28 -31 13 -33 -19 -3 -16 15
-26 20 -24 12z"/>
<path d="M5210 4870 c0 -5 4 -10 9 -10 6 0 13 5 16 10 3 6 -1 10 -9 10 -9 0
-16 -4 -16 -10z"/>
<path d="M4374 4765 c0 -60 1 -84 3 -52 2 32 2 81 0 110 -2 29 -3 3 -3 -58z"/>
<path d="M5279 4853 c-13 -16 -12 -17 4 -4 9 7 17 15 17 17 0 8 -8 3 -21 -13z"/>
<path d="M8840 4840 c-6 -11 -8 -20 -6 -20 3 0 10 9 16 20 6 11 8 20 6 20 -3
0 -10 -9 -16 -20z"/>
<path d="M5180 4840 c-8 -26 -7 -41 2 -32 6 6 8 16 5 24 -3 7 -6 11 -7 8z"/>
<path d="M5137 4768 c12 -13 20 -15 34 -7 30 16 22 29 -15 26 -32 -2 -33 -3
-19 -19z m40 6 c-3 -3 -12 -4 -19 -1 -8 3 -5 6 6 6 11 1 17 -2 13 -5z"/>
<path d="M5410 4785 c5 -24 -1 -35 -20 -35 -17 0 -19 -3 -10 -19 7 -14 6 -21
-3 -24 -8 -4 -7 -6 3 -6 8 -1 21 -10 28 -21 17 -27 27 -25 30 6 1 14 -2 23 -6
20 -4 -2 -14 -1 -22 5 -12 7 -12 9 3 9 10 0 15 5 12 10 -3 6 -1 10 4 10 6 0
11 -4 11 -10 0 -5 5 -10 12 -10 6 0 1 12 -13 26 -13 14 -22 28 -21 31 2 2 1 8
-3 11 -4 4 -6 3 -5 -3z"/>
<path d="M5054 4729 c-3 -6 -2 -15 3 -20 5 -5 9 -1 9 11 0 23 -2 24 -12 9z"/>
<path d="M5172 4731 c-11 -6 -10 -10 0 -19 11 -8 14 -7 14 9 0 10 0 19 -1 19
0 0 -6 -4 -13 -9z"/>
<path d="M5105 4720 c-4 -6 -12 -7 -18 -4 -7 4 -9 3 -4 -1 12 -14 46 -13 58 2
9 10 7 13 -9 13 -12 0 -24 -5 -27 -10z"/>
<path d="M5320 4722 c0 -12 19 -26 26 -19 2 2 -2 10 -11 17 -9 8 -15 8 -15 2z"/>
<path d="M6855 4700 c3 -5 11 -10 16 -10 6 0 7 5 4 10 -3 6 -11 10 -16 10 -6
0 -7 -4 -4 -10z"/>
<path d="M5205 4690 c-3 -5 1 -10 9 -10 9 0 16 5 16 10 0 6 -4 10 -9 10 -6 0
-13 -4 -16 -10z"/>
<path d="M5378 4672 c-10 -2 -18 -8 -18 -13 0 -13 27 -11 35 2 9 13 4 16 -17
11z"/>
<path d="M5548 4663 c6 -2 18 -2 25 0 6 3 1 5 -13 5 -14 0 -19 -2 -12 -5z"/>
<path d="M6727 4663 c-12 -12 -7 -22 8 -17 8 4 15 10 15 15 0 11 -14 12 -23 2z"/>
<path d="M7440 4661 c0 -6 4 -13 10 -16 6 -3 7 1 4 9 -7 18 -14 21 -14 7z"/>
<path d="M5046 4651 c-3 -5 5 -8 19 -8 14 0 22 3 19 8 -3 5 -11 9 -19 9 -8 0
-16 -4 -19 -9z"/>
<path d="M4372 4630 c0 -14 2 -19 5 -12 2 6 2 18 0 25 -3 6 -5 1 -5 -13z"/>
<path d="M5495 4640 c-13 -6 -15 -9 -5 -9 8 0 22 4 30 9 18 12 2 12 -25 0z"/>
<path d="M5101 4617 c-9 -12 -8 -16 5 -21 22 -8 28 -1 17 19 -8 14 -11 14 -22
2z"/>
<path d="M5399 4613 c-12 -15 -12 -16 3 -11 10 4 19 1 22 -9 4 -9 -1 -17 -13
-20 -11 -3 -17 -11 -14 -18 8 -21 66 15 68 42 1 12 -2 20 -6 17 -4 -2 -10 0
-14 6 -9 15 -31 12 -46 -7z"/>
<path d="M5351 4599 c11 -11 23 -19 25 -16 6 6 -25 37 -37 37 -5 0 0 -9 12
-21z"/>
<path d="M4370 4587 c0 -9 -7 -17 -16 -17 -9 0 -12 5 -8 13 4 7 2 7 -7 -2 -11
-10 -11 -15 -1 -18 9 -3 7 -12 -8 -30 -11 -14 -20 -32 -20 -39 0 -16 40 -45
52 -38 4 3 8 -27 8 -66 0 -45 -4 -69 -10 -65 -5 3 -10 2 -10 -4 0 -6 -9 -15
-20 -21 -19 -10 -20 -9 -15 12 4 16 -1 31 -15 46 -11 12 -17 22 -13 23 4 0 -3
5 -16 10 -39 15 -61 2 -61 -35 0 -23 7 -38 23 -49 l22 -16 -25 0 c-61 -1 -120
-29 -120 -58 0 -11 -11 -17 -31 -15 -3 0 -10 -8 -17 -19 -10 -15 -10 -19 2
-19 8 0 22 -3 31 -7 14 -5 16 -2 10 18 -5 19 -4 21 5 9 10 -13 11 -13 7 2 -3
9 3 24 14 34 10 9 19 12 19 6 0 -6 -6 -12 -12 -15 -10 -3 -10 -9 0 -27 7 -12
11 -25 8 -28 -3 -3 -6 1 -6 9 -1 9 -7 6 -20 -9 -10 -12 -21 -18 -24 -14 -3 5
-27 4 -53 -3 -53 -14 -63 -12 -63 12 0 13 -3 13 -15 3 -8 -7 -15 -18 -15 -26
0 -17 -17 -27 -31 -18 -8 4 -8 9 0 17 6 6 11 16 11 22 0 5 -5 3 -11 -5 -9 -13
-10 -13 -6 0 2 8 10 15 18 15 9 0 13 10 12 28 -2 30 7 25 40 -23 16 -23 17
-23 17 -4 0 11 -9 30 -20 42 -23 24 -27 40 -7 23 14 -11 27 -5 27 11 0 5 -4 6
-10 3 -5 -3 -10 -1 -10 6 0 8 -4 8 -16 -2 -13 -10 -19 -8 -40 14 -13 15 -20
29 -14 32 6 3 10 12 10 18 0 7 -5 4 -11 -5 -5 -10 -16 -15 -24 -12 -10 4 -15
0 -15 -11 0 -10 5 -15 14 -12 13 5 39 -19 43 -39 1 -5 -7 -11 -18 -11 -12 -1
-17 3 -13 10 4 7 -1 5 -11 -4 -9 -9 -17 -32 -18 -52 -1 -28 -3 -32 -14 -21
-16 15 -17 34 -2 34 6 0 4 7 -5 15 -19 19 -32 20 -17 1 7 -8 8 -17 3 -20 -5
-3 -8 -17 -7 -31 3 -21 1 -23 -15 -15 -13 7 -21 7 -26 -1 -5 -9 -11 -6 -21 6
-7 11 -13 15 -13 9 1 -18 28 -45 35 -35 3 6 11 11 16 11 6 0 3 -7 -5 -15 -12
-13 -20 -14 -37 -4 -15 7 -19 8 -15 0 4 -6 0 -11 -8 -11 -10 0 -13 -6 -10 -15
4 -8 1 -15 -5 -15 -6 0 -11 -8 -11 -17 0 -14 -2 -15 -9 -4 -5 8 -17 11 -28 7
-13 -4 -26 1 -38 14 -18 20 -18 20 11 20 23 0 26 -2 14 -11 -12 -9 -12 -10 -1
-7 24 7 23 25 -1 31 -29 8 -54 -15 -43 -40 11 -24 6 -54 -10 -73 -23 -26 2
-67 38 -61 14 2 7 -11 -15 -30 -27 -21 -48 -24 -48 -6 0 8 -4 7 -10 -3 -8 -12
-10 -13 -10 -1 0 8 8 23 18 34 12 15 13 18 2 12 -27 -16 -46 -15 -47 4 -1 13
4 17 21 14 16 -3 23 0 23 11 0 19 -13 21 -20 4 -3 -9 -9 -7 -19 6 -10 12 -21
17 -32 13 -10 -4 -30 0 -47 8 -21 12 -28 21 -25 38 2 12 8 21 13 20 5 -1 10 4
10 12 0 16 -26 6 -46 -18 -9 -12 -9 -18 1 -29 32 -35 52 -61 41 -54 -7 4 -21
2 -30 -4 -15 -9 -15 -11 -2 -7 9 3 21 1 26 -4 7 -7 15 -5 25 4 19 19 58 31 58
18 0 -6 -7 -11 -15 -11 -8 0 -23 -9 -32 -20 -11 -13 -24 -18 -39 -14 -28 7
-91 -22 -91 -41 0 -8 4 -12 9 -9 4 3 11 -2 14 -10 3 -9 10 -16 16 -16 5 0 6 5
3 10 -4 6 1 22 9 36 14 20 20 23 37 13 15 -8 24 -7 35 2 11 9 14 8 14 -5 0 -9
5 -16 10 -16 6 0 10 5 10 10 0 6 5 10 10 10 6 0 10 -7 10 -16 0 -8 -4 -13 -9
-10 -5 3 -12 -5 -15 -19 -7 -29 -21 -33 -30 -9 -5 12 -2 15 10 10 10 -4 14 -1
11 6 -2 7 -10 13 -18 13 -8 0 -19 4 -25 7 -14 9 -11 -21 5 -50 7 -13 10 -26 7
-30 -3 -3 -6 -1 -6 5 0 6 -13 16 -29 21 -23 8 -32 7 -41 -3 -14 -17 -61 -28
-72 -17 -11 11 -19 54 -9 47 5 -2 15 3 22 12 10 12 10 14 2 9 -12 -7 -17 6
-16 42 1 8 -5 11 -14 8 -8 -3 -20 -6 -26 -6 -7 -1 -1 -7 12 -14 18 -10 20 -14
8 -19 -11 -4 -14 -16 -12 -42 3 -27 -1 -39 -16 -48 -24 -15 -25 -32 -2 -23 15
6 15 5 -1 -13 -10 -11 -15 -25 -11 -30 3 -6 1 -11 -4 -11 -6 0 -11 -6 -11 -14
0 -8 -6 -17 -12 -19 -8 -3 -6 -6 5 -6 19 -1 24 -21 5 -21 -30 1 -38 17 -37 78
1 35 -1 66 -5 69 -3 3 -6 -24 -6 -60 0 -37 0 -70 -1 -74 0 -4 36 -22 82 -40
88 -35 134 -44 84 -15 -16 9 -31 23 -33 30 -1 8 2 11 9 6 8 -5 10 -2 6 8 -4
12 1 15 19 14 29 -1 29 0 2 -26 -12 -11 -16 -20 -9 -20 7 0 19 7 28 16 14 14
18 13 38 -6 13 -12 25 -30 28 -41 4 -15 2 -17 -13 -9 -25 14 -50 13 -30 0 52
-34 360 -124 580 -171 140 -29 371 -69 399 -69 11 0 13 95 8 611 -3 335 -8
613 -11 616 -3 4 -6 -1 -6 -10z m0 -63 c0 -31 -2 -35 -15 -24 -11 9 -15 9 -15
1 0 -6 7 -14 15 -17 8 -4 12 -10 9 -15 -3 -5 -14 0 -25 10 l-21 19 21 21 c12
12 21 26 21 31 0 6 2 10 5 10 3 0 5 -16 5 -36z m-115 -144 c3 -5 -1 -10 -10
-10 -9 0 -13 5 -10 10 3 6 8 10 10 10 2 0 7 -4 10 -10z m26 -63 c-10 -9 -11
-8 -5 6 3 10 9 15 12 12 3 -3 0 -11 -7 -18z m-70 -49 c0 -10 2 -10 6 0 7 17
21 15 41 -5 15 -15 15 -16 1 -11 -9 4 -26 0 -38 -8 -19 -14 -21 -13 -21 1 0 9
-4 13 -10 10 -11 -7 -14 8 -3 18 10 11 23 8 24 -5z m-38 -45 c-3 -14 -1 -23 7
-23 6 0 9 4 6 9 -3 5 5 11 18 13 25 5 25 3 17 -70 -1 -18 -21 -5 -21 14 0 8 5
12 10 9 6 -3 10 1 10 9 0 20 -19 21 -26 1 -5 -13 -9 -12 -24 5 -16 18 -18 35
-11 80 1 3 6 -2 11 -10 5 -8 7 -25 3 -37z m-262 -12 c4 7 11 10 16 6 4 -5 1
-12 -7 -17 -16 -10 -40 5 -40 24 0 6 5 3 11 -8 9 -14 13 -16 20 -5z m364 -20
c3 -5 1 -12 -5 -16 -5 -3 -10 1 -10 9 0 18 6 21 15 7z m-105 -26 c0 -8 -12
-18 -26 -21 -17 -4 -23 -11 -20 -21 3 -8 6 -19 6 -24 0 -6 5 -7 10 -4 6 3 10
2 10 -3 0 -5 -11 -15 -25 -22 -22 -12 -27 -11 -45 5 -11 10 -20 26 -20 37 0
10 -5 18 -12 18 -6 0 -8 3 -5 6 4 4 14 1 24 -7 9 -8 14 -9 10 -2 -4 6 -3 14 3
18 5 3 10 1 10 -6 0 -8 5 -8 16 2 13 11 50 33 62 38 1 1 2 -6 2 -14z m-314
-70 c-19 -19 -32 -20 -16 0 6 8 9 24 5 37 l-7 23 17 -23 c14 -20 15 -24 1 -37z
m318 19 c3 -8 2 -12 -4 -9 -6 3 -10 10 -10 16 0 14 7 11 14 -7z m-279 -4 c3
-5 1 -10 -4 -10 -6 0 -11 5 -11 10 0 6 2 10 4 10 3 0 8 -4 11 -10z m53 -17
c-3 -20 -22 -43 -34 -43 -5 0 -3 5 4 12 17 17 15 33 -3 18 -13 -11 -14 -10 -9
4 4 10 13 15 20 12 8 -3 14 -1 14 4 0 6 2 10 5 10 3 0 5 -8 3 -17z m-70 -27
c-7 -8 -15 -12 -17 -11 -5 6 10 25 20 25 5 0 4 -6 -3 -14z m-107 -17 c29 -25
33 -66 6 -73 -11 -3 -16 -9 -12 -16 5 -9 9 -9 14 -1 9 15 6 -59 -4 -81 -4 -10
-11 -15 -16 -12 -5 3 -9 -1 -9 -8 0 -11 -2 -11 -9 0 -4 7 -14 12 -22 10 -10
-2 -14 6 -14 27 0 27 3 30 31 27 22 -2 31 1 31 12 0 25 -28 28 -63 7 -38 -22
-47 -11 -12 13 l22 16 -24 0 c-22 0 -23 1 -8 16 13 13 19 14 36 3 18 -11 24
-10 40 4 10 9 22 14 26 10 4 -4 4 0 1 9 -4 10 -15 20 -26 23 -10 4 -19 13 -19
21 0 18 2 18 31 -7z m-44 -9 c-4 -16 0 -20 21 -20 22 -1 24 -2 10 -10 -16 -10
-60 0 -59 13 1 8 23 36 30 37 2 0 1 -9 -2 -20z m187 -8 c3 -5 -1 -9 -9 -9 -8
0 -12 4 -9 9 3 4 7 8 9 8 2 0 6 -4 9 -8z m146 4 c0 -2 -7 -9 -15 -16 -13 -11
-14 -10 -9 4 5 14 24 23 24 12z m47 -2 c-3 -3 -12 -4 -19 -1 -8 3 -5 6 6 6 11
1 17 -2 13 -5z m-431 -26 c-10 -5 -24 -7 -32 -4 -14 5 -18 -5 -15 -33 2 -11 0
-11 -12 0 -13 12 -13 16 1 32 9 10 22 15 29 13 7 -3 15 -1 18 5 4 5 11 6 17 3
7 -4 4 -10 -6 -16z m174 -2 c-4 -4 -16 -4 -26 2 -16 9 -14 10 8 9 15 -1 23 -6
18 -11z m63 -37 c-17 -17 -36 -1 -20 16 7 8 16 10 22 4 5 -6 5 -13 -2 -20z
m-38 -59 c-2 -35 -21 -60 -44 -59 -13 1 -13 2 2 6 9 2 17 11 17 18 0 9 -6 12
-17 8 -11 -4 -14 -3 -9 6 5 7 14 10 22 7 7 -3 16 -1 19 4 4 6 1 10 -6 10 -8 0
-8 4 1 15 17 20 17 20 15 -15z m32 15 c0 -8 -4 -15 -9 -15 -10 0 -11 14 -1 23
9 10 10 9 10 -8z m-521 -32 c-10 -10 -19 5 -10 18 6 11 8 11 12 0 2 -7 1 -15
-2 -18z m288 -7 c-3 -8 -1 -23 5 -34 7 -14 7 -19 -4 -19 -7 0 -11 6 -8 14 3 8
-2 13 -15 13 -12 0 -24 5 -28 12 -4 6 -3 8 4 4 6 -3 17 0 24 8 17 19 29 20 22
2z m-82 -21 c7 -12 7 -16 0 -11 -13 8 -42 -3 -42 -16 0 -5 9 -6 20 -3 12 4 20
2 20 -5 0 -6 -5 -8 -11 -4 -8 4 -9 0 -4 -15 4 -12 2 -21 -4 -21 -6 0 -11 4
-11 10 0 5 -12 21 -27 36 -25 25 -25 26 -4 19 20 -6 22 -4 17 12 -5 16 -2 19
15 18 12 -1 26 -10 31 -20z m321 11 c4 -10 1 -13 -8 -9 -8 3 -12 9 -9 14 7 12
11 11 17 -5z m-113 -16 c-6 -11 -16 -20 -22 -20 -7 0 -7 4 1 13 6 8 8 17 4 20
-3 4 1 7 11 7 14 0 15 -4 6 -20z m-166 -32 c-4 -7 -13 -20 -19 -28 -19 -24
-27 -68 -12 -73 6 -2 8 -8 4 -13 -4 -5 -12 -2 -16 5 -5 8 -14 10 -22 6 -8 -5
-6 1 4 12 10 11 15 27 11 37 -3 9 -1 16 5 16 6 0 11 6 11 13 0 15 20 37 33 37
4 0 5 -6 1 -12z m-189 -19 c-3 -4 -12 -6 -20 -3 -8 4 -13 10 -10 15 3 4 12 6
20 3 8 -4 13 -10 10 -15z m-137 -14 c-3 -3 -9 2 -12 12 -6 14 -5 15 5 6 7 -7
10 -15 7 -18z m222 17 c0 -13 -47 -51 -54 -44 -4 3 4 16 16 29 22 23 38 30 38
15z m345 -2 c3 -5 1 -10 -4 -10 -6 0 -11 5 -11 10 0 6 2 10 4 10 3 0 8 -4 11
-10z m-305 -48 c0 -5 -6 -14 -13 -20 -10 -9 -13 -4 -14 23 -1 30 1 32 13 20 8
-7 14 -18 14 -23z m117 23 c5 -4 3 -5 -4 -2 -6 4 -13 2 -15 -5 -3 -7 -12 -9
-22 -5 -9 4 -15 11 -12 15 6 11 43 9 53 -3z m-232 -5 c-3 -5 -11 -10 -16 -10
-6 0 -7 5 -4 10 3 6 11 10 16 10 6 0 7 -4 4 -10z m241 -25 c-9 -9 -16 -13 -16
-8 0 12 22 34 28 28 2 -2 -3 -11 -12 -20z m-406 5 c0 -5 -4 -10 -10 -10 -5 0
-10 5 -10 10 0 6 5 10 10 10 6 0 10 -4 10 -10z m163 -15 c-3 -9 -8 -14 -10
-11 -3 3 -2 9 2 15 9 16 15 13 8 -4z m207 -9 c0 -3 -4 -8 -10 -11 -5 -3 -10
-1 -10 4 0 6 5 11 10 11 6 0 10 -2 10 -4z m-350 -26 c0 -5 -4 -10 -10 -10 -5
0 -10 5 -10 10 0 6 5 10 10 10 6 0 10 -4 10 -10z m108 -15 c-3 -3 -9 2 -12 12
-6 14 -5 15 5 6 7 -7 10 -15 7 -18z m392 -10 c0 -11 -29 -11 -33 -1 -4 10 1
12 14 9 10 -3 19 -7 19 -8z m53 -21 c-4 -12 -8 -13 -14 -3 -9 15 -2 32 11 24
5 -3 6 -13 3 -21z m-407 2 c10 -8 16 -17 13 -20 -3 -4 -17 2 -30 13 -27 23
-13 28 17 7z m62 -11 c-3 -3 -9 2 -12 12 -6 14 -5 15 5 6 7 -7 10 -15 7 -18z
m75 10 c-3 -9 -8 -14 -10 -11 -3 3 -2 9 2 15 9 16 15 13 8 -4z m122 5 c3 -6
-1 -7 -9 -4 -18 7 -21 14 -7 14 6 0 13 -4 16 -10z m-85 -80 c0 -5 -2 -10 -4
-10 -3 0 -8 5 -11 10 -3 6 -1 10 4 10 6 0 11 -4 11 -10z"/>
<path d="M4081 4106 c-9 -11 -9 -16 1 -22 19 -12 37 -13 44 -3 3 5 2 9 -3 8
-23 -4 -35 2 -29 16 7 19 2 19 -13 1z"/>
<path d="M3741 3891 c-8 -6 -9 -11 -3 -15 6 -3 14 -1 17 5 9 14 2 20 -14 10z"/>
<path d="M5063 4573 c-3 -10 -8 -22 -11 -27 -3 -5 0 -6 5 -3 6 4 16 0 23 -8 7
-8 17 -15 23 -15 6 0 0 11 -12 24 -13 14 -20 29 -16 35 3 6 4 11 0 11 -3 0 -8
-8 -12 -17z"/>
<path d="M6900 4581 c0 -5 -7 -16 -15 -24 -12 -13 -11 -15 9 -13 15 1 22 6 18
15 -4 10 1 12 19 6 28 -9 24 -3 -8 14 -14 7 -23 8 -23 2z"/>
<path d="M7899 4583 c0 -5 -2 -21 -3 -36 -1 -16 -8 -32 -16 -37 -8 -6 -10 -10
-5 -10 22 1 42 27 43 58 0 17 -4 32 -9 32 -5 0 -9 -3 -10 -7z"/>
<path d="M4295 4569 c-6 -8 -4 -10 5 -4 10 6 12 4 6 -11 -6 -15 -5 -17 5 -6 9
9 10 15 2 23 -8 8 -13 7 -18 -2z"/>
<path d="M6730 4570 c-13 -8 -12 -10 3 -10 9 0 17 5 17 10 0 12 -1 12 -20 0z"/>
<path d="M6710 4541 c0 -6 4 -12 8 -15 5 -3 9 1 9 9 0 8 -4 15 -9 15 -4 0 -8
-4 -8 -9z"/>
<path d="M7095 4540 c-4 -6 -14 -9 -22 -6 -10 4 -13 0 -11 -11 4 -21 28 -30
28 -10 0 9 6 17 13 20 6 2 9 7 6 11 -4 4 -10 2 -14 -4z"/>
<path d="M7355 4540 c-3 -6 1 -7 9 -4 18 7 21 14 7 14 -6 0 -13 -4 -16 -10z"/>
<path d="M7873 4535 c0 -8 4 -12 9 -9 4 3 8 9 8 15 0 5 -4 9 -8 9 -5 0 -9 -7
-9 -15z"/>
<path d="M7000 4532 c0 -4 9 -8 20 -9 11 -1 18 2 15 8 -7 11 -35 12 -35 1z"/>
<path d="M6880 4519 c0 -5 5 -7 10 -4 6 3 10 8 10 11 0 2 -4 4 -10 4 -5 0 -10
-5 -10 -11z"/>
<path d="M7660 4521 c0 -6 4 -12 8 -15 5 -3 9 1 9 9 0 8 -4 15 -9 15 -4 0 -8
-4 -8 -9z"/>
<path d="M7017 4493 c3 -7 6 -13 8 -13 1 0 7 6 13 13 8 10 6 13 -7 13 -11 0
-17 -6 -14 -13z"/>
<path d="M7300 4501 c0 -6 4 -13 10 -16 6 -3 7 1 4 9 -7 18 -14 21 -14 7z"/>
<path d="M7530 4501 c0 -5 6 -11 13 -14 6 -2 9 -8 5 -12 -5 -5 -19 -3 -33 3
-14 6 -27 7 -30 2 -3 -5 4 -12 16 -15 17 -6 19 -9 8 -16 -11 -7 -11 -9 3 -9 9
0 20 -5 24 -12 5 -8 2 -9 -9 -5 -16 6 -24 -12 -11 -25 8 -9 45 3 39 12 -3 4 2
10 9 13 15 6 18 47 5 47 -4 0 -11 9 -14 20 -6 20 -25 28 -25 11z"/>
<path d="M7135 4480 c-16 -17 -16 -20 -3 -15 9 4 19 13 22 21 7 19 2 18 -19
-6z"/>
<path d="M7386 4451 c-16 -17 -16 -19 1 -25 9 -4 14 -4 11 0 -4 4 -3 15 3 25
12 24 7 24 -15 0z"/>
<path d="M7690 4452 c0 -5 7 -9 15 -9 8 0 12 4 9 9 -3 4 -9 8 -15 8 -5 0 -9
-4 -9 -8z"/>
<path d="M7596 4432 c-3 -5 1 -9 9 -9 8 0 12 4 9 9 -3 4 -7 8 -9 8 -2 0 -6 -4
-9 -8z"/>
<path d="M3986 4410 c-12 -13 -23 -16 -30 -11 -7 6 -11 2 -11 -14 0 -14 5 -21
13 -18 6 3 12 0 12 -6 0 -6 5 -11 12 -11 6 0 22 -10 35 -22 13 -12 23 -16 23
-10 0 7 -4 12 -10 12 -5 0 -9 3 -9 8 1 4 1 14 0 22 -1 12 -3 12 -10 2 -6 -10
-10 -10 -21 3 -11 14 -11 16 1 13 8 -2 13 3 11 11 -1 7 3 19 9 27 17 21 -3 16
-25 -6z"/>
<path d="M4263 4419 c14 -8 22 -8 30 0 8 8 3 11 -18 11 -26 -1 -28 -2 -12 -11z"/>
<path d="M7640 4420 c0 -5 -7 -10 -16 -10 -16 0 -44 -23 -44 -36 0 -4 8 0 18
8 25 22 50 29 55 15 3 -7 4 -2 4 11 -1 21 -17 33 -17 12z"/>
<path d="M8499 4393 l-24 -28 28 24 c25 23 32 31 24 31 -2 0 -14 -12 -28 -27z"/>
<path d="M7370 4395 c-8 -9 -8 -15 -2 -15 12 0 26 19 19 26 -2 2 -10 -2 -17
-11z"/>
<path d="M4302 4378 c3 -7 13 -15 23 -17 17 -3 17 -2 3 13 -20 19 -31 21 -26
4z"/>
<path d="M4140 4350 c-9 -6 -10 -10 -3 -10 6 0 15 5 18 10 8 12 4 12 -15 0z"/>
<path d="M4055 4339 c-4 -6 -5 -12 -2 -15 2 -3 7 2 10 11 7 17 1 20 -8 4z"/>
<path d="M4149 4327 c-32 -19 -35 -24 -22 -36 13 -11 17 -12 23 0 5 7 6 18 2
24 -3 5 2 4 11 -3 20 -17 43 -6 28 12 -6 7 -8 16 -4 19 10 11 1 7 -38 -16z"/>
<path d="M6940 4341 c0 -10 19 -25 25 -20 1 2 -3 10 -11 17 -8 7 -14 8 -14 3z"/>
<path d="M3880 4329 c0 -5 5 -7 10 -4 6 3 10 8 10 11 0 2 -4 4 -10 4 -5 0 -10
-5 -10 -11z"/>
<path d="M3956 4332 c-2 -4 4 -9 15 -9 11 -1 17 2 14 8 -7 11 -22 12 -29 1z"/>
<path d="M4065 4294 c13 -14 14 -19 3 -25 -7 -5 -8 -9 -2 -9 12 0 34 21 34 33
0 4 -4 6 -9 2 -5 -3 -12 -1 -16 5 -3 5 -11 10 -16 10 -6 0 -3 -7 6 -16z"/>
<path d="M8403 4288 c-20 -26 -26 -41 -15 -34 12 7 36 46 29 46 -3 0 -9 -6
-14 -12z"/>
<path d="M4026 4281 c-3 -5 1 -11 9 -14 9 -4 12 -1 8 9 -6 16 -10 17 -17 5z"/>
<path d="M4086 4255 c-24 -24 -43 -34 -32 -17 8 13 -38 9 -52 -5 -11 -11 -11
-13 3 -13 10 0 13 -5 9 -12 -4 -7 2 -4 14 6 12 11 22 16 22 11 0 -4 -9 -16
-21 -26 -11 -10 -18 -23 -14 -28 10 -16 25 -13 25 5 0 9 18 34 40 55 37 36 46
49 35 49 -2 0 -15 -11 -29 -25z"/>
<path d="M3637 4247 c-9 -11 -14 -23 -12 -26 3 -2 11 4 18 13 11 15 17 16 35
7 14 -7 23 -8 27 -1 6 10 -1 14 -19 11 -4 -1 -13 3 -20 8 -8 7 -17 3 -29 -12z"/>
<path d="M3878 4263 c7 -3 16 -2 19 1 4 3 -2 6 -13 5 -11 0 -14 -3 -6 -6z"/>
<path d="M3652 4218 c5 -15 28 -23 28 -10 0 5 -7 13 -16 16 -10 4 -14 1 -12
-6z"/>
<path d="M3470 4190 c0 -6 7 -10 15 -10 8 0 15 2 15 4 0 2 -7 6 -15 10 -8 3
-15 1 -15 -4z"/>
<path d="M3585 4174 c-16 -7 -24 -13 -18 -14 7 0 12 -8 10 -17 -1 -10 3 -19 8
-20 6 -2 10 6 10 17 0 12 7 25 15 30 24 15 7 18 -25 4z"/>
<path d="M3677 4183 c-11 -11 -8 -20 8 -20 8 0 16 6 19 14 5 13 -15 18 -27 6z"/>
<path d="M3193 4095 c0 -33 2 -45 4 -27 2 18 2 45 0 60 -2 15 -4 0 -4 -33z"/>
<path d="M3531 4124 c-7 -17 -17 -24 -27 -20 -8 3 -13 2 -10 -3 7 -11 62 -9
73 3 5 5 1 7 -9 3 -20 -7 -24 3 -7 20 6 6 7 13 1 17 -5 3 -14 -6 -21 -20z"/>
<path d="M8249 4123 l-24 -28 28 24 c15 14 27 26 27 28 0 8 -8 1 -31 -24z"/>
<path d="M3380 4110 c-9 -6 -10 -10 -3 -10 6 0 15 5 18 10 8 12 4 12 -15 0z"/>
<path d="M3690 4100 c0 -5 5 -10 11 -10 5 0 7 5 4 10 -3 6 -8 10 -11 10 -2 0
-4 -4 -4 -10z"/>
<path d="M3580 4090 c-9 -6 -10 -10 -3 -10 6 0 15 5 18 10 8 12 4 12 -15 0z"/>
<path d="M3312 4077 c-12 -7 -20 -16 -16 -20 4 -3 16 -1 27 4 15 8 22 8 28 -2
10 -16 12 -8 3 15 -7 19 -12 19 -42 3z"/>
<path d="M3478 4049 c-20 -11 -24 -29 -6 -29 6 0 8 3 5 7 -4 3 1 12 11 19 20
16 14 18 -10 3z"/>
<path d="M3561 4038 c-7 -11 -7 -18 -1 -18 5 0 10 4 10 8 0 5 10 14 23 20 22
10 22 10 1 9 -12 -1 -27 -9 -33 -19z"/>
<path d="M3351 4025 c-23 -22 -23 -23 -3 -29 11 -4 23 -13 26 -21 3 -8 11 -15
18 -15 9 0 10 3 2 8 -15 10 -34 48 -28 55 4 3 17 -6 30 -20 13 -14 24 -21 24
-15 0 6 -6 15 -13 19 -8 4 -18 15 -23 24 -8 14 -12 14 -33 -6z"/>
<path d="M3500 4030 c-8 -5 -11 -12 -7 -16 4 -4 13 -2 19 4 15 15 7 24 -12 12z"/>
<path d="M3193 3950 c0 -47 2 -66 4 -42 2 23 2 61 0 85 -2 23 -4 4 -4 -43z"/>
<path d="M3220 3961 c0 -6 4 -12 8 -15 5 -3 9 1 9 9 0 8 -4 15 -9 15 -4 0 -8
-4 -8 -9z"/>
<path d="M3414 3885 c-2 -26 11 -34 19 -12 5 14 -2 37 -12 37 -3 0 -7 -11 -7
-25z"/>
<path d="M3220 3810 c-12 -8 -13 -12 -1 -19 10 -7 11 -13 1 -32 l-11 -24 21
24 c15 17 17 26 9 32 -6 4 -8 12 -5 18 9 13 6 14 -14 1z"/>
<path d="M3386 3652 c-3 -6 1 -13 10 -16 23 -9 28 -2 10 13 -8 7 -17 8 -20 3z"/>
<path d="M2670 3416 c0 -2 7 -7 16 -10 8 -3 12 -2 9 4 -6 10 -25 14 -25 6z"/>
<path d="M8010 3210 c-9 -6 -10 -10 -3 -10 6 0 15 5 18 10 8 12 4 12 -15 0z"/>
<path d="M7915 3160 c-3 -6 1 -7 9 -4 18 7 21 14 7 14 -6 0 -13 -4 -16 -10z"/>
<path d="M7640 3024 c-25 -14 -34 -22 -20 -18 35 9 98 43 80 43 -8 0 -35 -12
-60 -25z"/>
<path d="M7465 2946 c-39 -19 -65 -35 -60 -35 14 0 152 67 140 68 -6 1 -42
-14 -80 -33z"/>
<path d="M7260 2869 c-30 -11 -61 -17 -68 -14 -7 2 -11 1 -8 -3 3 -5 -62 -30
-144 -57 -144 -47 -150 -48 -163 -30 -13 17 -14 17 -19 -9 -5 -26 -4 -27 26
-20 44 9 414 132 434 144 26 15 3 10 -58 -11z"/>
<path d="M7142 2873 c-6 -2 -10 -9 -6 -14 8 -14 21 -11 28 6 6 15 1 17 -22 8z"/>
<path d="M5588 2823 c6 -2 18 -2 25 0 6 3 1 5 -13 5 -14 0 -19 -2 -12 -5z"/>
<path d="M5368 2803 c12 -2 30 -2 40 0 9 3 -1 5 -23 4 -22 0 -30 -2 -17 -4z"/>
<path d="M5003 2793 c9 -2 23 -2 30 0 6 3 -1 5 -18 5 -16 0 -22 -2 -12 -5z"/>
<path d="M5178 2793 c18 -2 45 -2 60 0 15 2 0 4 -33 4 -33 0 -45 -2 -27 -4z"/>
<path d="M6798 2725 c-2 -3 -18 -6 -34 -8 -16 -2 -38 -8 -49 -15 -17 -10 -15
-11 15 -5 57 10 117 31 94 32 -11 1 -23 -1 -26 -4z"/>
<path d="M6642 2690 c-18 -4 -36 -11 -40 -15 -4 -5 4 -5 18 -2 14 4 35 7 48 7
12 0 22 5 22 10 0 11 -1 11 -48 0z"/>
<path d="M4478 2673 c7 -3 16 -2 19 1 4 3 -2 6 -13 5 -11 0 -14 -3 -6 -6z"/>
<path d="M6508 2653 c6 -2 18 -2 25 0 6 3 1 5 -13 5 -14 0 -19 -2 -12 -5z"/>
<path d="M6340 2630 c-47 -10 -73 -18 -58 -19 33 -1 130 20 143 31 5 4 7 8 5
7 -3 -1 -43 -9 -90 -19z"/>
<path d="M6458 2643 c6 -2 18 -2 25 0 6 3 1 5 -13 5 -14 0 -19 -2 -12 -5z"/>
<path d="M6203 2603 c9 -2 23 -2 30 0 6 3 -1 5 -18 5 -16 0 -22 -2 -12 -5z"/>
<path d="M6118 2593 c12 -2 30 -2 40 0 9 3 -1 5 -23 4 -22 0 -30 -2 -17 -4z"/>
<path d="M6023 2583 c9 -2 25 -2 35 0 9 3 1 5 -18 5 -19 0 -27 -2 -17 -5z"/>
<path d="M5590 2569 c-48 -9 217 -8 310 0 54 5 26 7 -100 7 -96 -1 -191 -4
-210 -7z"/>
</g>
</svg>
