<?xml version="1.0" standalone="no"?>
<!DOCTYPE svg PUBLIC "-//W3C//DTD SVG 20010904//EN"
 "http://www.w3.org/TR/2001/REC-SVG-20010904/DTD/svg10.dtd">
<svg version="1.0" xmlns="http://www.w3.org/2000/svg"
 width="2508.000000pt" height="627.000000pt" viewBox="0 0 2508.000000 627.000000"
 preserveAspectRatio="xMidYMid meet">

<g transform="translate(0.000000,627.000000) scale(0.100000,-0.100000)"
fill="#000000" stroke="none">
<path d="M6910 5189 c-105 -77 -127 -96 -118 -104 3 -4 54 26 113 64 59 39
111 71 116 71 14 0 100 -56 200 -131 178 -133 334 -245 388 -280 93 -59 86
-16 87 -508 0 -240 2 -445 4 -456 6 -26 16 792 12 866 l-4 57 -224 163 c-294
215 -457 328 -469 328 -5 -1 -53 -32 -105 -70z"/>
<path d="M8376 4929 c237 -247 361 -414 473 -634 140 -276 216 -527 246 -815
20 -182 19 -274 -5 -437 -31 -210 -71 -366 -131 -513 -36 -87 -128 -272 -162
-327 -35 -57 -41 -71 -18 -43 28 33 116 194 163 296 89 196 162 487 178 719
11 143 -3 381 -25 450 -7 22 -20 83 -29 135 -17 98 -42 188 -57 205 -5 5 -9
17 -9 27 0 39 -131 332 -200 448 -87 147 -291 388 -428 506 l-67 58 71 -75z"/>
<path d="M6150 3007 l0 -1867 98 0 c144 0 446 41 525 72 29 11 37 28 12 28
-13 0 -15 53 -15 415 0 351 -2 415 -14 415 -8 0 -16 5 -18 11 -2 7 -13 9 -27
4 -12 -4 -20 -9 -18 -12 3 -2 -1 -19 -8 -38 -8 -18 -11 -35 -8 -38 8 -9 -35
-45 -74 -62 -49 -22 -77 -4 -75 47 1 27 -18 36 -90 42 -21 2 -38 0 -38 -5 0
-6 -6 -9 -12 -8 -7 1 -30 -5 -50 -14 -36 -16 -122 -21 -113 -7 3 4 -4 10 -15
13 -22 6 -28 -15 -33 -123 -2 -36 -4 185 -5 490 -5 1170 -14 2495 -18 2499 -2
2 -4 -836 -4 -1862z m595 -1282 c-4 -38 -11 -78 -17 -89 -10 -19 -12 -18 -23
14 -23 69 -24 116 -3 151 20 32 21 33 35 14 11 -16 13 -36 8 -90z m-253 38
c-10 -4 -10 -8 0 -20 10 -12 9 -18 -7 -29 -21 -16 -35 -4 -35 31 0 15 7 20 28
21 15 1 21 -1 14 -3z m-312 -243 c-6 -10 -9 15 -8 70 l1 85 8 -70 c4 -39 4
-76 -1 -85z m553 61 c8 -31 -11 -63 -35 -59 -19 2 -24 10 -26 42 -2 23 0 36 7
32 5 -4 12 -2 16 3 8 14 32 3 38 -18z m-48 -175 c0 -24 -5 -30 -27 -33 -31 -4
-37 13 -15 47 17 29 42 21 42 -14z m-508 -98 c-2 -13 -4 -5 -4 17 -1 22 1 32
4 23 2 -10 2 -28 0 -40z m511 -83 c-10 -10 -193 -45 -232 -44 -56 1 -19 17 44
19 25 1 68 8 95 15 52 13 102 19 93 10z m-363 -55 c3 -6 -4 -10 -17 -10 -13 0
-40 -3 -60 -6 -24 -4 -38 -3 -38 4 0 6 19 13 43 15 23 2 47 4 54 5 6 1 15 -2
18 -8z"/>
<path d="M7802 4785 c0 -16 2 -22 5 -12 2 9 2 23 0 30 -3 6 -5 -1 -5 -18z"/>
<path d="M14913 4788 c-68 -21 -163 -84 -180 -119 -44 -91 -73 -171 -73 -200
0 -26 3 -30 10 -19 5 8 10 23 10 32 0 42 46 135 88 180 60 64 93 83 182 103
168 36 317 -31 384 -174 27 -60 30 -76 31 -166 0 -55 -3 -113 -8 -130 -7 -28
-6 -28 9 5 26 54 30 167 9 231 -61 186 -152 263 -322 271 -61 3 -97 0 -140
-14z"/>
<path d="M14344 4528 c-13 -20 -17 -259 -5 -288 8 -19 9 1 5 80 -3 58 -1 130
4 160 11 58 9 70 -4 48z"/>
<path d="M12257 4440 c-19 -48 -15 -68 5 -26 l12 27 19 -23 18 -23 -14 30 c-8
17 -16 36 -19 44 -2 7 -12 -6 -21 -29z"/>
<path d="M18081 4449 c-14 -41 -14 -46 1 -31 18 18 26 15 43 -15 17 -30 16
-21 -6 40 -16 45 -24 46 -38 6z"/>
<path d="M18031 4342 c-16 -30 -31 -72 -26 -72 8 0 47 82 42 87 -3 3 -10 -4
-16 -15z"/>
<path d="M18150 4355 c0 -8 72 -135 76 -135 2 0 -12 32 -31 70 -31 61 -45 82
-45 65z"/>
<path d="M12196 4315 c-9 -26 -7 -32 5 -12 6 10 9 21 6 23 -2 3 -7 -2 -11 -11z"/>
<path d="M7167 4253 c-10 -9 -9 -2911 1 -2917 17 -10 187 56 340 133 157 78
267 145 407 246 117 84 135 98 135 107 0 16 -24 7 -79 -30 -31 -21 -64 -41
-74 -45 -15 -6 -16 -4 -7 13 12 23 -10 33 -80 35 -25 1 -55 3 -68 4 -23 1 -66
57 -56 73 3 4 -2 8 -10 8 -9 0 -16 4 -16 10 0 5 -15 9 -32 8 -40 -1 -61 4 -70
16 -3 6 -28 -12 -53 -38 -48 -48 -106 -70 -163 -60 -14 3 -21 1 -17 -5 3 -6
-9 -4 -27 3 -18 8 -34 21 -36 30 -2 9 -10 16 -17 16 -9 0 -16 17 -21 45 -3 25
-11 45 -16 45 -5 0 -8 -57 -6 -144 2 -79 1 -152 -2 -162 -11 -31 -18 574 -19
1625 -1 542 -3 986 -5 988 -1 2 -6 0 -9 -4z m623 -2598 c-17 -20 -129 -75
-154 -75 -34 0 0 26 79 60 79 33 93 36 75 15z m-249 -48 c-10 -9 -11 -8 -5 6
3 10 9 15 12 12 3 -3 0 -11 -7 -18z m-65 -122 c-11 -8 -25 -15 -30 -15 -6 0
-2 7 8 15 11 8 25 15 30 15 6 0 2 -7 -8 -15z m-246 -110 c-30 -17 -40 -18 -40
-6 0 8 22 16 55 19 6 1 -1 -5 -15 -13z"/>
<path d="M12162 4235 c-17 -37 -14 -45 4 -12 9 16 14 31 11 33 -2 2 -9 -7 -15
-21z"/>
<path d="M17966 4203 c-6 -14 -5 -15 5 -6 7 7 10 15 7 18 -3 3 -9 -2 -12 -12z"/>
<path d="M14350 4194 c0 -28 45 -140 76 -189 44 -68 149 -205 157 -205 16 0 6
32 -16 53 -40 38 -169 239 -193 302 -13 33 -23 51 -24 39z"/>
<path d="M18230 4207 c0 -14 31 -69 36 -64 3 3 -4 20 -15 38 -12 19 -21 30
-21 26z"/>
<path d="M12115 4139 c-9 -17 -15 -33 -13 -35 3 -2 12 12 21 31 21 43 13 47
-8 4z"/>
<path d="M18270 4124 c0 -5 7 -19 15 -30 8 -10 15 -14 15 -8 0 5 -7 19 -15 30
-8 10 -15 14 -15 8z"/>
<path d="M17872 4012 c-30 -54 -45 -95 -31 -86 12 7 62 114 56 120 -2 2 -13
-13 -25 -34z"/>
<path d="M18310 4041 c0 -6 4 -13 10 -16 6 -3 7 1 4 9 -7 18 -14 21 -14 7z"/>
<path d="M15494 3947 c-57 -53 -109 -91 -144 -106 -30 -13 -68 -34 -85 -46
-16 -13 -52 -29 -80 -37 -40 -11 -51 -18 -53 -37 -2 -13 0 -22 5 -20 115 52
280 155 361 226 61 55 103 103 89 103 -2 0 -44 -37 -93 -83z"/>
<path d="M12549 3903 c80 -165 151 -303 156 -303 3 0 -40 90 -95 200 -55 110
-102 200 -104 200 -3 0 16 -44 43 -97z"/>
<path d="M12036 3973 c-6 -14 -5 -15 5 -6 7 7 10 15 7 18 -3 3 -9 -2 -12 -12z"/>
<path d="M18356 3957 c3 -10 9 -15 12 -12 3 3 0 11 -7 18 -10 9 -11 8 -5 -6z"/>
<path d="M18401 3870 c14 -31 19 -36 19 -24 0 6 -7 19 -16 30 -14 18 -14 18
-3 -6z"/>
<path d="M17777 3815 c-9 -19 -15 -35 -12 -35 7 0 37 61 33 66 -3 2 -12 -12
-21 -31z"/>
<path d="M11951 3803 c-10 -26 -10 -27 4 -9 8 11 15 23 15 28 0 15 -7 8 -19
-19z"/>
<path d="M18430 3801 c0 -5 5 -13 10 -16 6 -3 10 -2 10 4 0 5 -4 13 -10 16 -5
3 -10 2 -10 -4z"/>
<path d="M18456 3757 c3 -10 9 -15 12 -12 3 3 0 11 -7 18 -10 9 -11 8 -5 -6z"/>
<path d="M18476 3717 c3 -10 9 -15 12 -12 3 3 0 11 -7 18 -10 9 -11 8 -5 -6z"/>
<path d="M17682 3623 c-24 -47 -41 -87 -39 -89 2 -2 23 35 46 82 23 48 40 88
39 90 -2 2 -23 -35 -46 -83z"/>
<path d="M11843 3598 c-14 -29 -37 -73 -49 -98 -13 -24 -21 -46 -19 -48 2 -2
27 41 54 97 28 56 49 101 46 101 -2 0 -17 -24 -32 -52z"/>
<path d="M14760 3589 c0 -7 -9 -9 -22 -6 -36 9 -80 -21 -223 -156 -63 -60 -92
-96 -120 -152 -34 -66 -38 -82 -41 -167 -3 -91 -3 -91 6 -26 10 84 25 128 62
192 66 112 138 179 275 254 l71 40 34 -37 c19 -20 70 -79 113 -131 89 -106
215 -247 379 -423 61 -65 118 -130 128 -145 16 -24 18 -25 24 -7 6 15 -5 31
-52 74 -55 52 -164 174 -259 291 -22 27 -53 59 -68 71 -27 20 -130 143 -231
275 -44 59 -76 81 -76 53z"/>
<path d="M18550 3573 c1 -11 70 -130 70 -120 0 11 -59 127 -65 127 -3 0 -5 -3
-5 -7z"/>
<path d="M12720 3566 c0 -11 30 -66 36 -66 2 0 -3 15 -12 33 -19 36 -24 44
-24 33z"/>
<path d="M17615 3490 c-9 -16 -13 -30 -11 -30 3 0 12 14 21 30 9 17 13 30 11
30 -3 0 -12 -13 -21 -30z"/>
<path d="M5891 3484 c0 -11 3 -14 6 -6 3 7 2 16 -1 19 -3 4 -6 -2 -5 -13z"/>
<path d="M12772 3463 c17 -41 30 -53 17 -15 -6 18 -15 35 -20 38 -5 3 -4 -7 3
-23z"/>
<path d="M16236 3414 c-16 -31 -51 -94 -78 -141 -27 -47 -47 -90 -45 -96 4
-12 50 68 116 202 47 92 52 121 7 35z"/>
<path d="M5894 3180 c0 -151 2 -213 3 -137 2 75 2 199 0 275 -1 75 -3 13 -3
-138z"/>
<path d="M18642 3395 c12 -25 24 -42 26 -36 4 12 -24 67 -38 76 -6 4 0 -14 12
-40z"/>
<path d="M5110 2303 c0 -773 3 -983 13 -990 80 -61 691 -197 763 -169 11 4 14
29 14 107 0 124 -8 128 -11 6 -1 -48 -5 -87 -9 -87 -16 0 -20 94 -20 533 0
251 -4 457 -9 457 -4 0 -6 -11 -3 -25 2 -14 -3 -36 -12 -50 -18 -28 -21 -39
-6 -30 15 9 12 -18 -4 -50 -8 -15 -12 -34 -9 -42 3 -8 1 -18 -5 -22 -6 -4 -12
-21 -14 -37 -1 -20 -7 -31 -16 -30 -8 1 -17 -5 -20 -13 -3 -8 0 -11 7 -7 6 4
11 2 11 -3 0 -6 -6 -11 -13 -11 -9 0 -11 -12 -9 -40 2 -22 8 -37 13 -34 5 3 6
-2 3 -10 -7 -19 -9 -19 -35 -6 -20 11 -20 11 -23 -31 -1 -21 -46 -49 -46 -29
0 6 -7 10 -15 10 -8 0 -15 -5 -15 -12 0 -6 -3 -8 -6 -5 -4 4 -1 13 6 22 16 19
1 19 -24 0 -11 -8 -27 -15 -36 -15 -9 0 -25 -9 -35 -20 -10 -11 -23 -20 -29
-20 -6 0 2 12 17 25 16 14 25 30 21 36 -4 8 -9 7 -16 -2 -8 -11 -9 -10 -4 3 9
29 -28 104 -52 104 -11 0 -18 -4 -16 -8 7 -11 -4 -10 -26 2 -25 14 -70 -4 -70
-28 0 -10 -5 -23 -11 -29 -9 -9 -7 -16 6 -30 17 -17 17 -18 2 -21 -10 -2 -15
-8 -12 -13 4 -5 1 -9 -5 -9 -6 0 -9 -4 -6 -9 3 -5 -1 -14 -8 -20 -11 -9 -17
-8 -29 9 -12 17 -22 20 -55 15 -24 -3 -44 0 -48 6 -10 16 2 22 24 10 17 -9 19
-8 15 9 -3 11 -12 20 -20 20 -10 0 -11 4 -4 19 14 25 -5 82 -24 75 -9 -4 -14
1 -14 13 -2 77 -31 130 -31 56 0 -24 -3 -34 -10 -27 -6 6 -12 274 -16 714 -3
388 -8 707 -10 709 -2 2 -4 -437 -4 -976z m395 -553 c2 -23 0 -39 -3 -35 -4 4
-8 25 -8 46 -2 52 7 43 11 -11z m142 -95 c0 -8 -4 -15 -9 -15 -10 0 -11 14 -1
23 9 10 10 9 10 -8z m-27 -33 c-16 -6 -71 19 -64 29 2 4 21 1 40 -9 20 -9 31
-18 24 -20z m80 -16 c0 -3 -4 -8 -10 -11 -5 -3 -10 -1 -10 4 0 6 5 11 10 11 6
0 10 -2 10 -4z m-480 -76 c0 -5 -4 -10 -10 -10 -5 0 -10 5 -10 10 0 6 5 10 10
10 6 0 10 -4 10 -10z m222 -194 c-5 -39 -34 -71 -57 -63 -20 8 -19 51 2 68 11
10 14 10 9 2 -4 -7 -2 -13 3 -13 6 0 16 9 23 20 18 29 25 25 20 -14z m-268
-15 c4 -5 -3 -7 -14 -4 -23 6 -26 13 -6 13 8 0 17 -4 20 -9z m591 -137 l30
-14 -34 5 c-18 3 -40 5 -48 5 -8 0 -11 5 -8 10 8 13 24 12 60 -6z"/>
<path d="M13999 3155 c-27 -117 -13 -323 28 -395 13 -23 13 -21 8 30 -5 52 -5
54 9 30 9 -14 15 -19 16 -12 0 6 7 12 15 12 8 0 15 9 15 20 0 11 -4 20 -8 20
-4 0 -8 9 -9 20 -1 11 2 18 8 15 14 -9 11 11 -4 23 -6 6 -19 12 -27 14 -8 2
-20 17 -27 33 -11 29 -12 29 -13 5 -2 -24 -2 -24 -11 5 -10 31 -6 87 12 167 6
26 9 53 6 60 -2 7 -10 -14 -18 -47z m38 -257 c-3 -8 -6 -5 -6 6 -1 11 2 17 5
13 3 -3 4 -12 1 -19z"/>
<path d="M18750 3183 c0 -11 60 -110 60 -100 0 11 -49 107 -55 107 -3 0 -5 -3
-5 -7z"/>
<path d="M12971 3075 c0 -5 8 -26 19 -45 11 -19 19 -30 19 -25 0 6 -8 26 -19
45 -11 19 -19 31 -19 25z"/>
<path d="M16006 3013 c-19 -38 -46 -83 -60 -102 -14 -19 -26 -46 -26 -60 0
-22 6 -17 39 34 78 123 114 195 97 195 -9 0 -30 -27 -50 -67z"/>
<path d="M11560 3034 c-6 -14 -15 -35 -21 -47 l-10 -22 18 21 c10 12 23 29 28
38 9 15 64 17 635 17 344 1 634 5 645 9 11 5 -269 9 -633 9 l-652 1 -10 -26z"/>
<path d="M17386 3024 c-9 -20 -15 -38 -13 -41 2 -2 10 10 17 27 l12 30 372 3
c204 1 495 2 648 2 152 0 280 3 284 8 4 4 -287 7 -647 7 l-655 0 -18 -36z"/>
<path d="M13020 2971 c0 -6 4 -13 10 -16 6 -3 7 1 4 9 -7 18 -14 21 -14 7z"/>
<path d="M13040 2934 c0 -6 7 -19 16 -30 14 -18 14 -18 3 6 -14 31 -19 36 -19
24z"/>
<path d="M11496 2915 c-9 -26 -7 -32 5 -12 6 10 9 21 6 23 -2 3 -7 -2 -11 -11z"/>
<path d="M18900 2894 c0 -6 7 -19 16 -30 14 -18 14 -18 3 6 -14 31 -19 36 -19
24z"/>
<path d="M13070 2871 c0 -6 4 -13 10 -16 6 -3 7 1 4 9 -7 18 -14 21 -14 7z"/>
<path d="M17265 2779 c-4 -6 -5 -12 -2 -15 2 -3 7 2 10 11 7 17 1 20 -8 4z"/>
<path d="M5894 2580 c0 -113 2 -159 3 -102 2 56 2 148 0 205 -1 56 -3 10 -3
-103z"/>
<path d="M11370 2660 c-28 -55 -48 -100 -45 -100 3 0 27 45 55 100 28 55 48
100 45 100 -3 0 -27 -45 -55 -100z"/>
<path d="M13130 2756 c0 -11 50 -106 55 -106 3 0 -7 24 -21 53 -28 55 -34 65
-34 53z"/>
<path d="M14388 2744 c-16 -8 -28 -21 -28 -30 0 -12 11 -15 54 -13 l55 2 -20
29 c-23 32 -24 32 -61 12z"/>
<path d="M14051 2704 c-1 -19 94 -147 138 -187 89 -81 272 -177 336 -177 14 0
42 -7 63 -16 78 -33 472 -43 472 -12 0 6 -57 7 -162 3 -143 -6 -174 -4 -256
14 -95 21 -162 48 -92 37 19 -3 61 -9 93 -12 55 -7 57 -6 57 17 0 13 9 38 20
54 11 17 20 37 20 46 0 9 9 28 20 42 32 41 26 53 -37 67 -32 7 -65 15 -73 18
-8 3 -12 2 -8 -2 3 -4 -5 -24 -18 -43 -13 -20 -24 -41 -24 -48 0 -6 -9 -20
-20 -30 -11 -10 -20 -24 -20 -32 0 -28 -27 -43 -71 -39 -24 2 -50 -1 -59 -6
-21 -13 -86 19 -133 65 -18 17 -51 47 -72 66 l-38 35 24 9 c13 5 34 13 47 18
26 10 30 46 5 51 -28 6 -116 -10 -123 -22 -7 -11 -34 16 -72 70 -9 14 -17 20
-17 14z"/>
<path d="M17157 2568 c-38 -72 -66 -132 -64 -135 3 -2 35 55 72 127 36 73 65
133 63 135 -2 2 -34 -55 -71 -127z"/>
<path d="M9451 2674 c0 -11 3 -14 6 -6 3 7 2 16 -1 19 -3 4 -6 -2 -5 -13z"/>
<path d="M16012 2680 c3 -8 -8 -31 -24 -50 -58 -70 -72 -103 -58 -131 8 -15 7
-21 -4 -25 -9 -3 -22 -19 -30 -35 l-14 -29 63 0 64 0 -9 30 c-8 27 -4 34 31
71 39 41 48 62 29 74 -15 9 -1 27 16 21 25 -10 15 9 -27 49 -23 22 -39 33 -37
25z"/>
<path d="M15621 2576 c-22 -19 -54 -47 -70 -63 -16 -15 -55 -41 -87 -57 -97
-49 -165 -88 -161 -93 10 -9 226 110 296 162 l74 56 61 -68 c140 -157 124
-144 196 -146 36 -1 144 -1 240 1 129 2 168 6 150 13 -15 6 -112 9 -241 7
l-217 -3 -14 25 c-28 47 -159 200 -173 200 -7 0 -31 -15 -54 -34z"/>
<path d="M9390 2470 c-54 -163 -181 -427 -254 -524 -29 -39 -79 -107 -111
-151 -76 -103 -256 -288 -365 -376 -84 -68 -106 -79 -126 -59 -15 15 -44 1
-44 -20 0 -10 -9 -22 -20 -25 -13 -4 -20 -15 -20 -30 0 -15 -11 -32 -30 -45
-43 -31 -213 -110 -223 -103 -4 3 -19 2 -32 -1 -18 -5 -24 -12 -22 -28 2 -24
-57 -64 -137 -91 -69 -24 -99 -22 -111 5 -9 20 -44 45 -104 74 -7 4 -16 3 -20
-3 -3 -5 -14 -12 -23 -16 -26 -9 -22 -23 16 -52 44 -33 52 -55 29 -73 -16 -12
-14 -13 17 -8 l35 6 -30 -14 c-153 -73 -245 -105 -300 -106 -16 0 -17 2 -5 10
26 16 -16 23 -65 11 -24 -6 -62 -11 -85 -11 -25 0 -39 -4 -35 -10 3 -5 0 -11
-7 -12 -7 0 7 -4 32 -7 l45 -7 -70 -21 c-38 -11 -135 -28 -215 -37 -80 -10
-183 -23 -230 -30 l-85 -14 68 -1 c218 -4 772 119 997 222 30 14 84 37 120 52
197 82 465 240 650 383 297 230 590 615 715 942 47 120 96 281 92 294 -2 6
-23 -50 -47 -124z"/>
<path d="M15307 2583 c-12 -11 -8 -19 19 -47 30 -29 59 -33 89 -11 17 13 17
17 5 29 -27 24 -99 43 -113 29z"/>
<path d="M19074 2558 c8 -18 34 -69 58 -113 l43 -80 248 -3 c136 -1 262 2 280
7 22 7 -55 10 -247 9 l-280 0 -53 106 c-29 58 -55 106 -58 106 -3 0 1 -15 9
-32z"/>
<path d="M13220 2575 c0 -5 5 -17 10 -25 5 -8 10 -10 10 -5 0 6 -5 17 -10 25
-5 8 -10 11 -10 5z"/>
<path d="M15097 2532 c-15 -21 -35 -51 -45 -68 -50 -92 -71 -114 -107 -114
-20 0 -35 -5 -35 -11 0 -20 227 12 298 42 l23 9 -20 34 c-12 18 -21 41 -21 50
0 25 -28 74 -48 85 -14 7 -23 2 -45 -27z"/>
<path d="M15387 2485 c-6 -14 11 -35 29 -35 6 0 17 6 23 14 9 11 6 16 -18 24
-22 8 -31 7 -34 -3z"/>
<path d="M13270 2471 c0 -6 4 -13 10 -16 6 -3 7 1 4 9 -7 18 -14 21 -14 7z"/>
<path d="M5853 2390 c0 -30 2 -43 4 -27 2 15 2 39 0 55 -2 15 -4 2 -4 -28z"/>
<path d="M11241 2406 l-11 -26 -257 -1 c-165 -1 -244 -4 -218 -10 22 -4 138
-8 257 -8 l217 -1 16 31 c9 17 14 33 11 36 -3 3 -10 -6 -15 -21z"/>
<path d="M16180 2420 l-25 -8 25 -3 c60 -6 92 -1 65 11 -24 10 -33 10 -65 0z"/>
<path d="M13325 2370 c8 -12 451 -13 510 -1 25 6 -63 9 -238 10 -183 1 -276
-2 -272 -9z"/>
<path d="M16605 2370 c-12 -5 71 -9 205 -9 124 0 234 4 245 9 12 5 -71 9 -205
9 -124 0 -234 -4 -245 -9z"/>
<path d="M6753 2320 c0 -30 2 -43 4 -27 2 15 2 39 0 55 -2 15 -4 2 -4 -28z"/>
<path d="M15112 2330 c-18 -4 -36 -11 -40 -15 -10 -11 81 4 93 16 11 11 -5 11
-53 -1z"/>
<path d="M5894 2055 c0 -137 2 -195 3 -128 2 67 2 179 0 250 -1 70 -3 16 -3
-122z"/>
<path d="M5845 2219 c6 -33 15 -36 15 -6 0 15 -4 27 -9 27 -6 0 -8 -10 -6 -21z"/>
<path d="M6190 2143 c0 -28 3 -34 10 -23 13 20 13 47 0 55 -6 4 -10 -9 -10
-32z"/>
<path d="M8679 2023 c-29 -35 -41 -53 -36 -53 2 0 17 16 31 35 28 36 31 49 5
18z"/>
<path d="M6620 1959 c0 -5 5 -7 10 -4 6 3 10 8 10 11 0 2 -4 4 -10 4 -5 0 -10
-5 -10 -11z"/>
<path d="M8569 1888 c-45 -52 -54 -66 -31 -48 31 23 111 120 99 120 -3 0 -34
-33 -68 -72z"/>
<path d="M5725 1820 c-3 -5 -1 -10 4 -10 6 0 11 5 11 10 0 6 -2 10 -4 10 -3 0
-8 -4 -11 -10z"/>
<path d="M5730 1791 c0 -6 4 -13 10 -16 6 -3 7 1 4 9 -7 18 -14 21 -14 7z"/>
<path d="M5892 1715 c0 -16 2 -22 5 -12 2 9 2 23 0 30 -3 6 -5 -1 -5 -18z"/>
<path d="M5580 1715 c-11 -13 -10 -14 4 -9 9 3 16 10 16 15 0 13 -6 11 -20 -6z"/>
<path d="M5680 1709 c0 -5 5 -7 10 -4 6 3 10 8 10 11 0 2 -4 4 -10 4 -5 0 -10
-5 -10 -11z"/>
<path d="M5893 1580 c0 -47 2 -66 4 -42 2 23 2 61 0 85 -2 23 -4 4 -4 -43z"/>
<path d="M12400 1545 c-21 -25 -6 -31 19 -7 18 16 20 22 9 22 -9 0 -21 -7 -28
-15z"/>
<path d="M12490 1554 c0 -8 72 -36 78 -30 2 3 -1 8 -9 10 -8 3 -26 10 -41 15
-16 6 -28 8 -28 5z"/>
<path d="M12590 1538 c-12 -22 -12 -22 6 -6 10 10 15 20 12 24 -4 3 -12 -5
-18 -18z"/>
<path d="M13196 1544 c-9 -8 -16 -21 -16 -27 0 -7 5 -4 11 6 5 9 16 17 24 17
8 0 17 5 20 10 10 16 -22 11 -39 -6z"/>
<path d="M14770 1549 c-67 -6 -56 -12 17 -9 40 1 42 0 45 -32 l3 -33 6 38 c3
21 3 39 0 40 -3 1 -35 0 -71 -4z"/>
<path d="M13320 1530 c45 -25 62 -25 30 0 -14 11 -34 19 -45 19 -15 0 -11 -5
15 -19z"/>
<path d="M13999 1523 c5 -25 6 -26 9 -6 3 21 8 23 115 26 l112 3 -121 2 -121
2 6 -27z"/>
<path d="M14930 1530 c0 -11 5 -20 10 -20 6 0 9 6 8 13 -2 8 17 14 57 18 l60
6 -67 1 c-62 2 -68 0 -68 -18z"/>
<path d="M15918 1543 c17 -2 47 -2 65 0 17 2 3 4 -33 4 -36 0 -50 -2 -32 -4z"/>
<path d="M16093 1543 c7 -7 129 -4 136 3 2 2 -29 4 -69 4 -40 0 -70 -3 -67 -7z"/>
<path d="M16813 1543 c15 -2 37 -2 50 0 12 2 0 4 -28 4 -27 0 -38 -2 -22 -4z"/>
<path d="M16963 1543 c15 -2 39 -2 55 0 15 2 2 4 -28 4 -30 0 -43 -2 -27 -4z"/>
<path d="M11587 1478 c-16 -52 -16 -53 2 -28 16 19 22 22 34 12 12 -11 13 -7
4 28 -6 22 -14 40 -17 40 -3 0 -14 -24 -23 -52z"/>
<path d="M17706 1508 c-9 -37 -7 -51 8 -45 7 3 19 0 25 -6 8 -8 8 -2 1 23 -13
46 -26 56 -34 28z"/>
<path d="M18498 1445 c2 -19 7 -33 12 -30 8 5 53 -42 94 -98 15 -21 32 -37 37
-35 5 2 28 35 53 73 27 43 50 69 60 69 11 -1 16 7 16 28 0 16 -4 27 -9 24 -5
-4 -35 -47 -66 -96 -31 -50 -61 -88 -65 -85 -5 3 -34 46 -66 95 -31 50 -60 90
-63 90 -4 0 -5 -16 -3 -35z"/>
<path d="M13101 1433 c7 -12 15 -20 18 -17 3 2 -3 12 -13 22 -17 16 -18 16 -5
-5z"/>
<path d="M19382 1401 l-2 -54 159 6 c88 4 242 13 343 21 101 8 228 18 283 22
55 3 102 8 104 10 9 9 -431 3 -539 -7 -63 -5 -165 -13 -227 -17 l-112 -7 -4
40 c-3 34 -4 32 -5 -14z"/>
<path d="M10071 1406 c2 -2 101 -9 219 -15 118 -6 258 -16 310 -21 234 -23
434 -21 408 5 -8 9 -593 35 -782 35 -88 0 -157 -2 -155 -4z"/>
<path d="M12349 1392 c13 -11 49 -25 80 -32 31 -6 68 -18 83 -25 22 -11 26
-10 21 1 -3 8 -13 14 -22 14 -9 0 -45 11 -81 24 -36 13 -74 27 -85 31 -17 6
-16 4 4 -13z"/>
<path d="M13151 1386 c12 -13 179 -62 176 -52 -4 11 -13 14 -97 36 -25 6 -54
14 -65 17 -11 3 -17 3 -14 -1z"/>
<path d="M13993 1358 c2 -7 11 -11 18 -9 8 2 57 7 109 11 l95 7 -113 2 c-87 1
-113 -2 -109 -11z"/>
<path d="M16800 1348 c0 -19 2 -20 10 -8 7 11 36 17 107 21 l98 6 -107 1
c-106 2 -108 2 -108 -20z"/>
<path d="M8058 1293 c-16 -2 -28 -7 -28 -10 0 -3 22 -27 49 -54 59 -61 81 -59
81 7 0 39 -3 46 -26 54 -14 6 -31 9 -37 9 -7 -1 -24 -4 -39 -6z"/>
<path d="M11486 1249 c-9 -23 -15 -43 -12 -46 2 -2 9 11 15 30 l12 35 87 5
c60 3 95 1 115 -8 15 -8 27 -10 27 -7 -1 23 -24 29 -121 31 l-106 2 -17 -42z"/>
<path d="M12615 1256 c-29 -45 -96 -76 -170 -77 -53 -1 -56 -2 -26 -9 47 -11
126 3 159 27 26 19 68 80 61 87 -2 2 -13 -10 -24 -28z"/>
<path d="M17610 1286 c0 -2 -7 -20 -15 -40 -8 -20 -13 -36 -10 -36 3 0 12 15
20 34 l14 33 98 -5 c54 -2 103 -9 110 -14 8 -7 10 -3 6 11 -5 20 -13 21 -114
21 -60 0 -109 -2 -109 -4z"/>
<path d="M7805 1258 c-38 -20 -39 -21 -17 -31 12 -6 22 -15 22 -20 0 -6 10 -2
23 9 13 11 11 6 -6 -13 -41 -44 -31 -69 28 -71 24 -1 46 2 49 6 3 5 -6 24 -20
43 -13 18 -24 40 -23 49 3 29 -1 50 -8 50 -5 -1 -26 -10 -48 -22z"/>
<path d="M13383 1230 c-57 -52 -155 -65 -232 -30 -51 24 -57 25 -42 6 18 -22
107 -39 172 -33 60 5 110 31 129 68 14 25 11 24 -27 -11z"/>
<path d="M18401 1244 c0 -11 3 -14 6 -6 3 7 2 16 -1 19 -3 4 -6 -2 -5 -13z"/>
<path d="M12277 1239 c7 -7 15 -10 18 -7 3 3 -2 9 -12 12 -14 6 -15 5 -6 -5z"/>
<path d="M13065 1240 c3 -5 11 -10 16 -10 6 0 7 5 4 10 -3 6 -11 10 -16 10 -6
0 -7 -4 -4 -10z"/>
<path d="M12334 1196 c11 -9 27 -16 35 -16 21 0 2 16 -29 24 -24 7 -24 6 -6
-8z"/>
<path d="M11385 1180 c28 -12 75 -12 75 0 0 6 -21 10 -47 9 -36 0 -43 -3 -28
-9z"/>
<path d="M11788 1183 c12 -2 32 -2 45 0 12 2 2 4 -23 4 -25 0 -35 -2 -22 -4z"/>
<path d="M13915 1180 c28 -12 95 -12 95 0 0 6 -25 10 -57 9 -42 0 -52 -3 -38
-9z"/>
<path d="M14173 1183 c15 -2 37 -2 50 0 12 2 0 4 -28 4 -27 0 -38 -2 -22 -4z"/>
<path d="M14863 1178 c20 -7 35 -7 50 0 18 9 14 11 -28 11 -46 -1 -48 -1 -22
-11z"/>
<path d="M16015 1180 c7 -12 42 -12 70 0 15 6 8 9 -28 9 -30 1 -46 -3 -42 -9z"/>
<path d="M16706 1179 c6 -10 237 -11 304 -1 27 4 -28 8 -132 8 -100 1 -175 -2
-172 -7z"/>
<path d="M17500 1180 c20 -13 57 -13 65 0 4 6 -11 10 -37 10 -31 0 -39 -3 -28
-10z"/>
<path d="M17877 1179 c8 -8 22 -8 50 -1 l38 10 -49 1 c-37 1 -47 -2 -39 -10z"/>
<path d="M18427 1179 c19 -6 40 -5 55 0 18 8 12 10 -32 9 -50 0 -52 -1 -23 -9z"/>
<path d="M18780 1180 c0 -13 50 -13 70 0 11 7 4 10 -27 10 -24 0 -43 -4 -43
-10z"/>
<path d="M4915 1115 c30 -24 370 -193 445 -222 36 -13 90 -33 120 -44 68 -24
392 -104 480 -118 255 -40 497 -56 682 -45 123 7 151 23 45 25 l-62 2 75 8
c41 5 102 12 135 17 48 8 53 10 25 12 -19 1 -38 2 -41 2 -12 -2 -5 27 8 32 7
3 13 1 13 -4 0 -6 5 -10 10 -10 6 0 10 7 10 15 0 26 46 29 79 4 22 -16 27 -25
19 -31 -21 -13 70 -9 161 7 116 20 119 21 114 48 -4 18 4 30 32 51 30 23 36
34 33 57 -3 15 -1 26 3 24 13 -8 20 27 8 41 -19 23 -58 17 -70 -10 -6 -13 -21
-29 -34 -36 -12 -6 -33 -30 -46 -51 -40 -66 -43 -68 -83 -72 -28 -3 -51 3 -80
19 -23 13 -50 24 -62 24 -12 0 -31 9 -44 20 -28 24 -34 25 -55 4 -10 -11 -14
-26 -11 -43 3 -14 2 -33 -4 -41 -5 -8 -10 -10 -11 -5 0 6 -4 1 -8 -9 -7 -19
-8 -19 -29 2 -12 12 -22 35 -22 50 0 15 -5 33 -12 40 -9 9 -5 12 18 13 16 0
23 3 16 6 -15 6 -203 -15 -211 -23 -3 -3 0 -9 7 -13 21 -13 3 -62 -35 -97 -36
-33 -31 -44 20 -44 17 0 19 -2 8 -9 -14 -9 -192 -6 -300 5 -59 6 -53 24 8 24
19 0 31 3 28 7 -4 3 8 17 25 30 18 12 27 23 20 23 -24 0 -12 38 16 49 21 8 1
10 -88 8 -104 -1 -231 -12 -188 -15 34 -3 -19 -49 -65 -56 -48 -8 -37 -21 25
-31 21 -4 38 -11 38 -16 0 -11 -62 -5 -155 16 -33 8 -94 21 -135 29 -41 8 -93
22 -115 31 l-40 15 56 -6 c51 -5 57 -3 55 13 0 10 -8 21 -16 25 -9 4 -1 7 20
8 28 2 22 5 -31 15 -103 21 -187 28 -169 16 12 -9 11 -11 -9 -11 -24 0 -24 0
-5 -21 l19 -21 -35 6 c-41 9 -162 57 -156 63 2 3 25 -3 50 -11 26 -9 54 -16
64 -15 9 0 -3 8 -27 16 -24 8 -38 18 -32 22 5 4 -22 15 -62 25 -138 36 -273
83 -367 130 -52 26 -86 40 -75 31z m1278 -382 c-7 -2 -21 -2 -30 0 -10 3 -4 5
12 5 17 0 24 -2 18 -5z"/>
<path d="M7383 1067 c-41 -15 -51 -26 -18 -20 25 5 29 -1 25 -40 -1 -10 10
-29 25 -43 26 -24 45 -31 45 -16 0 8 -42 37 -51 35 -3 -1 -3 11 -1 26 2 16 -1
32 -8 36 -8 5 -6 11 7 21 22 16 18 16 -24 1z"/>
<path d="M6855 920 l-20 -9 20 0 c11 0 29 4 40 9 l20 9 -20 0 c-11 0 -29 -4
-40 -9z"/>
<path d="M6808 903 c7 -3 16 -2 19 1 4 3 -2 6 -13 5 -11 0 -14 -3 -6 -6z"/>
</g>
</svg>
